<svg id="svg" version="1.1" xmlns="http://www.w3.org/2000/svg" xmlns:xlink="http://www.w3.org/1999/xlink" width="400" height="400" viewBox="0, 0, 400,400"><g id="svgg"><path id="path0" d="M60.100 0.296 C 58.725 0.374,57.600 0.610,57.600 0.819 C 57.600 1.029,56.880 1.200,56.000 1.200 C 55.120 1.200,54.400 1.380,54.400 1.600 C 54.400 1.820,53.781 2.000,53.024 2.000 C 52.267 2.000,51.536 2.180,51.400 2.400 C 51.264 2.620,50.724 2.800,50.200 2.800 C 49.676 2.800,49.136 2.980,49.000 3.200 C 48.864 3.420,48.313 3.600,47.776 3.600 C 47.239 3.600,46.800 3.780,46.800 4.000 C 46.800 4.220,46.361 4.400,45.824 4.400 C 45.287 4.400,44.736 4.580,44.600 4.800 C 44.464 5.020,44.003 5.200,43.576 5.200 C 43.149 5.200,42.800 5.380,42.800 5.600 C 42.800 5.820,42.440 6.000,42.000 6.000 C 41.560 6.000,41.200 6.180,41.200 6.400 C 41.200 6.620,40.840 6.800,40.400 6.800 C 39.960 6.800,39.600 6.980,39.600 7.200 C 39.600 7.420,39.240 7.600,38.800 7.600 C 38.360 7.600,38.000 7.741,38.000 7.912 C 38.000 8.084,37.505 8.438,36.900 8.698 C 36.295 8.958,35.440 9.399,35.000 9.678 C 34.560 9.956,33.329 10.712,32.263 11.357 C 31.198 12.003,30.118 12.732,29.863 12.978 C 29.609 13.225,28.770 13.860,28.000 14.391 C 25.140 16.361,16.361 25.140,14.391 28.000 C 13.860 28.770,13.225 29.609,12.978 29.863 C 12.732 30.118,12.003 31.198,11.357 32.263 C 10.712 33.329,9.956 34.560,9.678 35.000 C 9.399 35.440,8.958 36.295,8.698 36.900 C 8.438 37.505,8.084 38.000,7.912 38.000 C 7.741 38.000,7.600 38.360,7.600 38.800 C 7.600 39.240,7.420 39.600,7.200 39.600 C 6.980 39.600,6.800 39.960,6.800 40.400 C 6.800 40.840,6.620 41.200,6.400 41.200 C 6.180 41.200,6.000 41.560,6.000 42.000 C 6.000 42.440,5.820 42.800,5.600 42.800 C 5.380 42.800,5.200 43.149,5.200 43.576 C 5.200 44.003,5.020 44.464,4.800 44.600 C 4.580 44.736,4.400 45.287,4.400 45.824 C 4.400 46.361,4.220 46.800,4.000 46.800 C 3.780 46.800,3.600 47.239,3.600 47.776 C 3.600 48.313,3.420 48.864,3.200 49.000 C 2.980 49.136,2.800 49.676,2.800 50.200 C 2.800 50.724,2.620 51.264,2.400 51.400 C 2.180 51.536,2.000 52.267,2.000 53.024 C 2.000 53.781,1.820 54.400,1.600 54.400 C 1.380 54.400,1.200 55.105,1.200 55.967 C 1.200 56.864,0.987 57.604,0.700 57.700 C -0.036 57.945,-0.036 342.055,0.700 342.300 C 0.987 342.396,1.200 343.136,1.200 344.033 C 1.200 344.895,1.380 345.600,1.600 345.600 C 1.820 345.600,2.000 346.219,2.000 346.976 C 2.000 347.733,2.180 348.464,2.400 348.600 C 2.620 348.736,2.800 349.276,2.800 349.800 C 2.800 350.324,2.980 350.864,3.200 351.000 C 3.420 351.136,3.600 351.687,3.600 352.224 C 3.600 352.761,3.780 353.200,4.000 353.200 C 4.220 353.200,4.400 353.639,4.400 354.176 C 4.400 354.713,4.580 355.264,4.800 355.400 C 5.020 355.536,5.200 355.997,5.200 356.424 C 5.200 356.851,5.380 357.200,5.600 357.200 C 5.820 357.200,6.000 357.560,6.000 358.000 C 6.000 358.440,6.180 358.800,6.400 358.800 C 6.620 358.800,6.800 359.160,6.800 359.600 C 6.800 360.040,6.980 360.400,7.200 360.400 C 7.420 360.400,7.600 360.760,7.600 361.200 C 7.600 361.640,7.780 362.000,8.000 362.000 C 8.220 362.000,8.400 362.338,8.400 362.751 C 8.400 363.164,8.667 363.724,8.994 363.995 C 9.320 364.266,9.970 365.253,10.437 366.188 C 11.625 368.568,14.998 373.048,17.279 375.277 C 18.336 376.310,19.200 377.316,19.200 377.513 C 19.200 377.910,22.212 380.800,22.625 380.800 C 22.768 380.800,23.721 381.670,24.743 382.733 C 25.764 383.797,27.230 385.097,28.000 385.622 C 28.770 386.148,29.707 386.859,30.082 387.202 C 31.049 388.086,37.019 391.600,37.554 391.600 C 37.799 391.600,38.000 391.780,38.000 392.000 C 38.000 392.220,38.360 392.400,38.800 392.400 C 39.240 392.400,39.600 392.580,39.600 392.800 C 39.600 393.020,39.960 393.200,40.400 393.200 C 40.840 393.200,41.200 393.380,41.200 393.600 C 41.200 393.820,41.560 394.000,42.000 394.000 C 42.440 394.000,42.800 394.180,42.800 394.400 C 42.800 394.620,43.149 394.800,43.576 394.800 C 44.003 394.800,44.464 394.980,44.600 395.200 C 44.736 395.420,45.287 395.600,45.824 395.600 C 46.361 395.600,46.800 395.780,46.800 396.000 C 46.800 396.220,47.239 396.400,47.776 396.400 C 48.313 396.400,48.864 396.580,49.000 396.800 C 49.136 397.020,49.676 397.200,50.200 397.200 C 50.724 397.200,51.264 397.380,51.400 397.600 C 51.536 397.820,52.267 398.000,53.024 398.000 C 53.781 398.000,54.400 398.180,54.400 398.400 C 54.400 398.620,55.105 398.800,55.967 398.800 C 56.864 398.800,57.604 399.013,57.700 399.300 C 57.917 399.951,308.211 400.287,311.400 399.641 C 312.500 399.418,315.380 398.851,317.800 398.381 C 347.407 392.633,369.745 369.086,375.079 338.000 C 376.199 331.474,376.199 68.526,375.079 62.000 C 369.664 30.443,346.772 6.829,316.200 1.265 C 314.880 1.024,313.170 0.699,312.400 0.541 C 311.019 0.258,64.949 0.019,60.100 0.296 M96.000 110.797 C 99.309 111.172,100.989 111.494,102.200 111.985 C 102.640 112.163,103.810 112.545,104.800 112.833 C 111.618 114.817,120.763 121.620,125.190 128.000 C 125.724 128.770,126.260 129.490,126.381 129.600 C 126.501 129.710,126.857 130.250,127.170 130.800 C 135.332 145.118,135.671 158.677,127.991 163.606 C 118.779 169.517,108.400 162.728,108.400 150.793 C 108.400 149.723,108.220 148.736,108.000 148.600 C 107.780 148.464,107.600 148.020,107.600 147.614 C 107.600 144.783,102.811 139.274,98.561 137.216 C 89.745 132.947,78.521 136.648,74.574 145.128 C 73.992 146.377,73.310 147.832,73.058 148.361 C 72.443 149.650,72.418 173.074,73.031 174.439 C 74.195 177.035,75.460 179.477,76.000 180.169 C 77.505 182.098,80.326 184.465,82.175 185.351 C 85.520 186.954,86.366 187.146,92.200 187.632 C 95.280 187.889,98.790 188.367,100.000 188.695 C 101.210 189.022,102.697 189.380,103.305 189.491 C 103.913 189.602,104.508 189.851,104.629 190.046 C 104.749 190.241,105.118 190.400,105.449 190.400 C 108.137 190.400,118.355 197.216,122.193 201.569 C 122.857 202.322,123.591 203.132,123.824 203.369 C 127.014 206.612,131.060 214.972,132.695 221.700 C 133.624 225.523,133.752 251.700,132.858 255.000 C 131.585 259.695,130.601 262.685,129.924 263.912 C 129.526 264.634,129.200 265.411,129.200 265.640 C 129.200 265.869,128.660 266.841,128.000 267.800 C 127.340 268.759,126.800 269.737,126.800 269.972 C 126.800 270.207,126.659 270.400,126.486 270.400 C 126.314 270.400,125.875 270.904,125.511 271.519 C 121.926 277.589,110.011 286.395,103.600 287.714 C 103.050 287.828,101.520 288.238,100.200 288.627 C 96.756 289.641,84.463 289.645,81.000 288.632 C 79.680 288.246,78.060 287.792,77.400 287.622 C 61.048 283.412,47.004 264.124,47.677 246.800 C 48.117 235.473,61.100 230.113,68.822 238.070 C 71.310 240.634,71.982 242.572,72.654 249.111 C 72.795 250.492,73.066 251.717,73.256 251.834 C 73.445 251.951,73.604 252.442,73.609 252.924 C 73.614 253.406,73.970 254.250,74.400 254.800 C 74.830 255.350,75.186 255.988,75.191 256.218 C 75.214 257.288,80.194 261.835,82.583 262.966 C 90.464 266.699,99.433 264.545,105.000 257.581 C 106.153 256.139,107.600 253.247,107.600 252.386 C 107.600 251.980,107.780 251.536,108.000 251.400 C 108.253 251.244,108.400 246.537,108.400 238.600 C 108.400 230.663,108.253 225.956,108.000 225.800 C 107.780 225.664,107.600 225.220,107.600 224.814 C 107.600 223.400,105.783 220.583,103.200 217.993 C 99.217 213.998,96.788 213.067,88.600 212.392 C 85.740 212.156,82.725 211.791,81.900 211.582 C 78.377 210.686,76.952 210.291,76.200 210.002 C 74.183 209.227,66.787 205.450,66.132 204.859 C 65.729 204.497,64.769 203.722,64.000 203.137 C 55.800 196.909,50.323 187.649,48.186 176.400 C 47.383 172.176,47.383 150.624,48.186 146.400 C 52.647 122.918,72.502 108.134,96.000 110.797 M208.580 111.229 C 208.789 111.433,209.543 111.600,210.256 111.600 C 210.969 111.600,211.664 111.780,211.800 112.000 C 211.936 112.220,212.476 112.400,213.000 112.400 C 213.524 112.400,214.064 112.580,214.200 112.800 C 214.336 113.020,214.718 113.200,215.049 113.200 C 215.380 113.200,216.854 113.774,218.325 114.475 C 228.334 119.245,235.672 127.261,240.413 138.600 C 241.177 140.429,242.268 144.769,242.675 147.600 C 243.088 150.473,243.088 249.527,242.675 252.400 C 242.271 255.213,241.186 259.536,240.417 261.400 C 235.822 272.534,228.312 280.819,218.600 285.467 C 216.436 286.503,214.289 287.248,208.800 288.868 C 206.343 289.594,193.670 289.597,191.200 288.872 C 180.520 285.740,176.043 283.262,169.775 277.014 C 165.979 273.231,163.473 269.701,161.244 265.000 C 160.513 263.460,159.755 261.887,159.558 261.505 C 159.361 261.123,159.200 260.459,159.200 260.029 C 159.200 259.599,159.040 259.148,158.844 259.027 C 158.649 258.906,158.374 258.131,158.235 257.304 C 158.096 256.477,157.761 254.450,157.491 252.800 C 156.799 248.572,156.784 151.569,157.474 147.200 C 158.066 143.452,158.370 142.018,158.790 141.000 C 158.971 140.560,159.336 139.570,159.602 138.800 C 160.742 135.493,163.527 130.426,166.181 126.832 C 169.867 121.839,181.776 113.200,184.972 113.200 C 185.291 113.200,185.651 113.041,185.771 112.846 C 185.892 112.651,186.487 112.393,187.095 112.271 C 187.703 112.149,189.010 111.840,190.000 111.585 C 194.308 110.475,207.548 110.221,208.580 111.229 M318.200 111.186 C 318.860 111.384,320.210 111.759,321.200 112.018 C 323.205 112.545,323.765 112.750,326.496 113.960 C 327.538 114.422,328.460 114.800,328.545 114.800 C 329.192 114.800,335.219 118.863,337.627 120.922 C 350.690 132.097,356.645 153.259,349.134 161.815 C 343.526 168.202,332.670 166.469,328.995 158.600 C 328.060 156.597,327.841 155.573,327.351 150.889 C 327.207 149.508,326.934 148.283,326.744 148.166 C 326.555 148.049,326.396 147.558,326.391 147.076 C 326.386 146.594,326.030 145.750,325.600 145.200 C 325.170 144.650,324.814 143.989,324.809 143.732 C 324.764 141.392,316.756 136.218,312.171 135.566 C 303.790 134.375,292.400 141.316,292.400 147.614 C 292.400 148.020,292.220 148.464,292.000 148.600 C 291.747 148.756,291.600 153.463,291.600 161.400 C 291.600 169.337,291.747 174.044,292.000 174.200 C 292.220 174.336,292.400 174.780,292.400 175.186 C 292.400 177.547,297.777 183.835,301.200 185.478 C 304.022 186.833,305.435 187.139,311.000 187.601 C 319.212 188.283,330.985 191.936,331.933 194.096 C 332.007 194.263,332.288 194.400,332.558 194.400 C 332.828 194.400,333.398 194.715,333.825 195.100 C 334.252 195.485,335.264 196.295,336.074 196.900 C 344.022 202.836,350.066 213.048,351.977 223.773 C 352.660 227.608,352.524 250.457,351.795 254.300 C 348.859 269.776,336.288 284.126,322.600 287.624 C 321.940 287.793,320.320 288.245,319.000 288.629 C 316.058 289.486,303.594 289.693,301.000 288.928 C 300.120 288.669,298.112 288.077,296.538 287.612 C 288.291 285.179,279.619 278.949,274.808 272.000 C 274.275 271.230,273.740 270.510,273.619 270.400 C 272.518 269.395,269.319 262.422,268.221 258.632 C 264.609 246.169,266.914 237.862,274.763 235.049 C 283.379 231.963,291.600 238.766,291.600 248.982 C 291.600 250.176,291.780 251.264,292.000 251.400 C 292.220 251.536,292.400 251.980,292.400 252.386 C 292.400 253.335,293.914 256.247,295.200 257.772 C 301.066 264.727,309.555 266.690,317.498 262.928 C 319.976 261.755,324.800 257.262,324.800 256.127 C 324.800 255.837,324.935 255.599,325.100 255.597 C 325.488 255.593,326.400 253.631,326.400 252.800 C 326.400 252.448,326.625 251.935,326.900 251.660 C 327.279 251.281,327.400 248.115,327.400 238.600 C 327.400 229.085,327.279 225.919,326.900 225.540 C 326.625 225.265,326.396 224.671,326.391 224.220 C 326.386 223.769,326.030 222.950,325.600 222.400 C 325.170 221.850,324.814 221.210,324.809 220.977 C 324.778 219.499,317.132 213.600,315.247 213.600 C 314.854 213.600,314.400 213.465,314.238 213.300 C 314.075 213.135,311.030 212.691,307.471 212.314 C 299.731 211.494,298.063 211.226,297.773 210.756 C 297.652 210.560,297.124 210.400,296.600 210.400 C 296.076 210.400,295.536 210.220,295.400 210.000 C 295.264 209.780,294.828 209.600,294.432 209.600 C 292.274 209.600,283.121 203.791,279.599 200.186 C 275.968 196.469,275.825 196.299,273.749 193.193 C 267.182 183.369,264.541 166.203,266.812 148.093 C 268.791 132.310,281.130 116.986,295.200 112.839 C 296.190 112.548,297.360 112.163,297.800 111.985 C 301.287 110.571,314.435 110.056,318.200 111.186 M196.723 135.632 C 190.860 136.491,185.121 141.402,182.913 147.449 C 181.798 150.500,181.811 249.529,182.926 252.600 C 188.904 269.062,212.057 268.623,217.246 251.950 C 218.327 248.479,218.429 151.992,217.356 148.373 C 215.357 141.630,209.644 136.581,202.911 135.608 C 199.875 135.169,199.878 135.169,196.723 135.632 " stroke="none" fill="#fb5443" fill-rule="evenodd"></path><path id="path1" d="M82.372 111.792 C 65.820 115.418,53.579 127.168,49.444 143.400 C 47.518 150.960,47.518 171.840,49.444 179.400 C 50.742 184.495,53.657 191.104,55.486 193.099 C 55.753 193.391,56.280 194.150,56.656 194.787 C 58.648 198.159,66.252 204.506,71.400 207.095 C 73.605 208.204,74.279 208.506,76.900 209.563 C 77.744 209.903,79.834 210.432,82.600 211.005 C 83.260 211.142,85.780 211.416,88.200 211.614 C 98.039 212.421,104.307 215.687,106.723 221.264 C 107.089 222.109,107.526 222.800,107.694 222.800 C 107.862 222.800,108.000 223.220,108.000 223.733 C 108.000 224.247,108.135 224.801,108.299 224.966 C 110.740 227.406,109.786 250.833,107.052 255.600 C 97.474 272.302,73.695 266.637,71.788 247.200 C 70.482 233.886,54.306 230.220,49.203 242.082 C 47.820 245.297,48.771 258.504,50.511 260.244 C 50.670 260.403,50.800 260.778,50.800 261.078 C 50.800 262.223,54.191 268.671,56.320 271.575 C 73.763 295.363,109.475 294.554,125.848 270.000 C 129.106 265.114,131.019 260.322,132.368 253.669 C 132.889 251.101,132.955 226.040,132.446 224.000 C 132.254 223.230,131.861 221.520,131.572 220.200 C 129.602 211.195,123.099 201.797,114.737 195.870 C 112.220 194.086,105.803 190.800,104.836 190.800 C 104.590 190.800,104.077 190.638,103.695 190.439 C 101.913 189.513,96.116 188.400,93.069 188.400 C 82.703 188.398,75.471 183.471,72.516 174.400 C 71.588 171.549,71.446 151.800,72.332 148.800 C 76.573 134.442,93.666 129.937,104.016 140.449 C 105.327 141.780,106.400 143.051,106.400 143.273 C 106.400 143.495,106.733 144.154,107.139 144.738 C 108.205 146.269,109.574 152.054,109.592 155.105 C 109.596 155.823,109.759 156.723,109.953 157.105 C 110.148 157.487,110.550 158.316,110.846 158.948 C 116.150 170.224,132.800 165.121,132.800 152.219 C 132.800 146.181,130.460 137.200,127.933 133.538 C 127.530 132.954,127.200 132.359,127.200 132.216 C 127.200 131.564,123.677 126.872,121.271 124.323 C 111.565 114.033,95.607 108.893,82.372 111.792 M193.000 111.585 C 192.340 111.757,190.720 112.131,189.400 112.417 C 176.462 115.217,163.801 127.228,159.692 140.600 C 157.725 147.005,157.800 144.640,157.800 200.000 C 157.800 253.510,157.778 252.650,159.263 258.200 C 161.383 266.125,168.232 276.170,174.400 280.401 C 175.170 280.929,175.890 281.460,176.000 281.581 C 176.801 282.459,183.331 285.727,186.347 286.760 C 194.748 289.635,206.307 289.541,214.367 286.530 C 216.900 285.584,223.587 282.182,224.000 281.629 C 224.110 281.482,224.830 280.935,225.600 280.414 C 230.848 276.864,239.600 264.984,239.600 261.412 C 239.600 261.101,239.759 260.749,239.954 260.629 C 240.149 260.508,240.402 259.913,240.517 259.305 C 240.632 258.697,241.058 257.030,241.463 255.600 C 242.438 252.160,242.623 149.131,241.662 145.200 C 237.620 128.672,225.437 115.666,211.000 112.466 C 209.900 112.222,208.155 111.838,207.123 111.611 C 204.964 111.138,194.788 111.119,193.000 111.585 M301.800 111.698 C 290.940 113.805,280.509 120.589,274.506 129.449 C 272.739 132.057,269.600 138.328,269.600 139.249 C 269.600 139.574,269.453 140.011,269.273 140.220 C 268.922 140.628,268.297 143.143,267.588 147.000 C 266.313 153.941,267.483 179.147,269.236 182.495 C 269.436 182.877,269.600 183.388,269.600 183.630 C 269.600 187.668,278.501 199.336,285.200 204.079 C 291.451 208.506,300.328 211.600,306.775 211.600 C 316.847 211.600,323.713 215.964,327.227 224.600 C 328.487 227.697,328.915 245.272,327.851 250.228 C 323.166 272.043,293.691 269.795,290.776 247.400 C 290.141 242.526,289.431 240.771,287.152 238.446 C 281.662 232.846,271.571 234.630,268.181 241.800 C 265.947 246.523,268.091 260.404,271.980 266.400 C 272.337 266.950,272.858 267.859,273.139 268.420 C 274.572 271.283,280.209 277.610,283.818 280.406 C 299.953 292.903,324.450 291.405,338.884 277.038 C 341.614 274.321,345.200 269.887,345.200 269.229 C 345.200 269.030,345.353 268.807,345.540 268.733 C 345.885 268.598,348.713 262.809,349.514 260.600 C 352.825 251.470,352.868 223.116,349.580 217.105 C 349.371 216.723,349.195 216.183,349.190 215.905 C 349.172 215.028,345.525 208.003,344.514 206.901 C 344.247 206.609,343.720 205.850,343.344 205.213 C 342.202 203.280,335.987 197.473,332.800 195.361 C 328.437 192.471,324.907 190.881,320.200 189.687 C 316.007 188.623,314.586 188.400,312.014 188.400 C 305.249 188.400,298.444 185.732,295.574 181.955 C 295.038 181.250,294.419 180.477,294.198 180.237 C 293.719 179.717,292.254 176.690,291.663 175.000 C 289.931 170.051,289.935 152.832,291.669 147.800 C 298.689 127.421,328.206 132.309,328.386 153.881 C 328.399 155.472,328.571 156.078,329.847 159.040 C 331.324 162.469,335.496 164.851,340.037 164.858 C 353.240 164.879,355.718 149.365,345.446 131.000 C 337.751 117.243,318.073 108.541,301.800 111.698 M204.600 135.267 C 210.232 136.478,215.514 141.247,217.742 147.133 L 218.600 149.400 218.600 200.000 L 218.600 250.600 217.735 252.886 C 211.377 269.693,188.154 269.375,182.175 252.400 C 181.224 249.700,180.704 154.332,181.617 150.000 C 183.144 142.752,189.032 136.537,195.600 135.242 C 196.810 135.003,198.160 134.733,198.600 134.642 C 199.564 134.442,201.887 134.684,204.600 135.267 " stroke="none" fill="#fcfafa" fill-rule="evenodd"></path><path id="path2" d="M311.200 0.400 C 311.530 0.613,312.395 0.791,313.123 0.794 C 314.427 0.800,315.139 0.936,320.529 2.208 C 348.775 8.874,369.945 32.078,375.079 62.000 C 376.199 68.526,376.199 331.474,375.079 338.000 C 369.729 369.178,347.217 392.824,317.561 398.415 C 315.053 398.888,312.460 399.420,311.800 399.597 C 310.130 400.044,336.338 400.036,339.800 399.588 C 344.348 398.999,345.600 398.733,345.600 398.356 C 345.600 398.160,346.320 398.000,347.200 398.000 C 348.080 398.000,348.800 397.820,348.800 397.600 C 348.800 397.380,349.340 397.200,350.000 397.200 C 350.660 397.200,351.200 397.020,351.200 396.800 C 351.200 396.580,351.740 396.400,352.400 396.400 C 353.060 396.400,353.600 396.220,353.600 396.000 C 353.600 395.780,354.050 395.600,354.600 395.600 C 355.150 395.600,355.600 395.420,355.600 395.200 C 355.600 394.980,355.834 394.800,356.120 394.800 C 356.856 394.800,358.793 393.859,358.797 393.500 C 358.799 393.335,359.160 393.200,359.600 393.200 C 360.040 393.200,360.400 393.020,360.400 392.800 C 360.400 392.580,360.760 392.400,361.200 392.400 C 361.640 392.400,362.000 392.220,362.000 392.000 C 362.000 391.780,362.264 391.600,362.586 391.600 C 363.399 391.600,366.000 390.324,366.000 389.926 C 366.000 389.747,366.193 389.600,366.428 389.600 C 366.833 389.600,370.374 387.335,370.800 386.803 C 370.910 386.666,371.450 386.251,372.000 385.880 C 375.075 383.810,383.810 375.075,385.880 372.000 C 386.251 371.450,386.666 370.910,386.803 370.800 C 387.335 370.374,389.600 366.833,389.600 366.428 C 389.600 366.193,389.747 366.000,389.926 366.000 C 390.324 366.000,391.600 363.399,391.600 362.586 C 391.600 362.264,391.780 362.000,392.000 362.000 C 392.220 362.000,392.400 361.640,392.400 361.200 C 392.400 360.760,392.580 360.400,392.800 360.400 C 393.020 360.400,393.200 360.040,393.200 359.600 C 393.200 359.160,393.335 358.799,393.500 358.797 C 393.859 358.793,394.800 356.856,394.800 356.120 C 394.800 355.834,394.980 355.600,395.200 355.600 C 395.420 355.600,395.600 355.150,395.600 354.600 C 395.600 354.050,395.780 353.600,396.000 353.600 C 396.220 353.600,396.400 353.060,396.400 352.400 C 396.400 351.740,396.580 351.200,396.800 351.200 C 397.020 351.200,397.200 350.660,397.200 350.000 C 397.200 349.340,397.380 348.800,397.600 348.800 C 397.820 348.800,398.000 348.080,398.000 347.200 C 398.000 346.320,398.160 345.600,398.356 345.600 C 398.733 345.600,398.999 344.348,399.588 339.800 C 400.070 336.080,400.070 63.920,399.588 60.200 C 398.999 55.652,398.733 54.400,398.356 54.400 C 398.160 54.400,398.000 53.680,398.000 52.800 C 398.000 51.920,397.820 51.200,397.600 51.200 C 397.380 51.200,397.200 50.660,397.200 50.000 C 397.200 49.340,397.020 48.800,396.800 48.800 C 396.580 48.800,396.400 48.260,396.400 47.600 C 396.400 46.940,396.220 46.400,396.000 46.400 C 395.780 46.400,395.600 45.950,395.600 45.400 C 395.600 44.850,395.420 44.400,395.200 44.400 C 394.980 44.400,394.800 44.166,394.800 43.880 C 394.800 43.144,393.859 41.207,393.500 41.203 C 393.335 41.201,393.200 40.840,393.200 40.400 C 393.200 39.960,393.020 39.600,392.800 39.600 C 392.580 39.600,392.400 39.240,392.400 38.800 C 392.400 38.360,392.220 38.000,392.000 38.000 C 391.780 38.000,391.600 37.736,391.600 37.414 C 391.600 36.601,390.324 34.000,389.926 34.000 C 389.747 34.000,389.600 33.807,389.600 33.572 C 389.600 33.175,387.574 30.013,386.619 28.920 C 386.389 28.657,385.210 27.247,384.000 25.789 C 380.640 21.738,374.658 15.943,371.882 14.048 C 371.397 13.717,370.910 13.334,370.800 13.197 C 370.374 12.665,366.833 10.400,366.428 10.400 C 366.193 10.400,366.000 10.253,366.000 10.074 C 366.000 9.676,363.399 8.400,362.586 8.400 C 362.264 8.400,362.000 8.220,362.000 8.000 C 362.000 7.780,361.640 7.600,361.200 7.600 C 360.760 7.600,360.400 7.420,360.400 7.200 C 360.400 6.980,360.040 6.800,359.600 6.800 C 359.160 6.800,358.799 6.665,358.797 6.500 C 358.793 6.141,356.856 5.200,356.120 5.200 C 355.834 5.200,355.600 5.020,355.600 4.800 C 355.600 4.580,355.150 4.400,354.600 4.400 C 354.050 4.400,353.600 4.220,353.600 4.000 C 353.600 3.780,353.060 3.600,352.400 3.600 C 351.740 3.600,351.200 3.420,351.200 3.200 C 351.200 2.980,350.660 2.800,350.000 2.800 C 349.340 2.800,348.800 2.620,348.800 2.400 C 348.800 2.180,348.080 2.000,347.200 2.000 C 346.320 2.000,345.600 1.840,345.600 1.644 C 345.600 1.267,344.348 1.001,339.800 0.412 C 335.909 -0.092,310.422 -0.102,311.200 0.400 M23.029 18.229 C 22.605 18.538,22.336 18.869,22.430 18.963 C 22.524 19.057,22.948 18.881,23.371 18.571 C 23.795 18.262,24.064 17.931,23.970 17.837 C 23.876 17.743,23.452 17.919,23.029 18.229 M18.093 23.200 C 17.818 23.640,17.731 24.000,17.900 24.000 C 18.069 24.000,18.432 23.640,18.707 23.200 C 18.982 22.760,19.069 22.400,18.900 22.400 C 18.731 22.400,18.368 22.760,18.093 23.200 M18.093 376.800 C 18.562 377.551,19.200 377.880,19.200 377.371 C 19.200 377.073,18.125 376.000,17.825 376.000 C 17.698 376.000,17.818 376.360,18.093 376.800 M22.400 381.104 C 22.400 381.271,22.760 381.632,23.200 381.907 C 24.130 382.488,24.254 382.197,23.429 381.371 C 22.798 380.741,22.400 380.637,22.400 381.104 " stroke="none" fill="#e4240c" fill-rule="evenodd"></path><path id="path3" d="M88.912 110.695 C 89.964 110.777,91.584 110.776,92.512 110.692 C 93.440 110.608,92.580 110.541,90.600 110.542 C 88.620 110.543,87.860 110.612,88.912 110.695 M198.300 110.693 C 199.235 110.777,200.765 110.777,201.700 110.693 C 202.635 110.609,201.870 110.540,200.000 110.540 C 198.130 110.540,197.365 110.609,198.300 110.693 M307.712 110.695 C 308.764 110.777,310.384 110.776,311.312 110.692 C 312.240 110.608,311.380 110.541,309.400 110.542 C 307.420 110.543,306.660 110.612,307.712 110.695 M82.000 111.221 C 81.570 111.514,81.854 111.554,83.000 111.362 C 84.984 111.030,85.304 110.798,83.767 110.806 C 83.125 110.809,82.330 110.996,82.000 111.221 M96.433 110.947 C 96.525 111.028,97.320 111.214,98.200 111.362 C 99.346 111.554,99.630 111.514,99.200 111.221 C 98.660 110.853,96.032 110.593,96.433 110.947 M191.600 111.200 C 190.836 111.694,191.658 111.694,193.200 111.200 L 194.200 110.880 193.200 110.846 C 192.650 110.827,191.930 110.987,191.600 111.200 M206.033 110.943 C 206.476 111.322,208.817 111.551,208.596 111.194 C 208.462 110.977,207.793 110.800,207.110 110.800 C 206.426 110.800,205.942 110.864,206.033 110.943 M300.800 111.221 C 300.370 111.514,300.654 111.554,301.800 111.362 C 303.784 111.030,304.104 110.798,302.567 110.806 C 301.925 110.809,301.130 110.996,300.800 111.221 M315.233 110.947 C 315.325 111.028,316.120 111.214,317.000 111.362 C 318.146 111.554,318.430 111.514,318.000 111.221 C 317.460 110.853,314.832 110.593,315.233 110.947 M101.000 112.000 C 102.101 112.473,102.492 112.473,102.200 112.000 C 102.064 111.780,101.558 111.613,101.076 111.628 C 100.231 111.655,100.229 111.669,101.000 112.000 M210.600 112.000 C 211.701 112.473,212.092 112.473,211.800 112.000 C 211.664 111.780,211.158 111.613,210.676 111.628 C 209.831 111.655,209.829 111.669,210.600 112.000 M297.800 112.000 C 297.508 112.473,297.899 112.473,299.000 112.000 C 299.771 111.669,299.769 111.655,298.924 111.628 C 298.442 111.613,297.936 111.780,297.800 112.000 M109.600 114.979 C 109.600 115.089,110.140 115.459,110.800 115.800 C 111.460 116.141,112.000 116.331,112.000 116.221 C 112.000 116.111,111.460 115.741,110.800 115.400 C 110.140 115.059,109.600 114.869,109.600 114.979 M289.100 115.429 C 287.549 116.270,287.725 116.561,289.300 115.759 C 290.808 114.993,291.075 114.794,290.567 114.816 C 290.365 114.825,289.705 115.101,289.100 115.429 M220.400 115.790 C 220.400 115.894,220.985 116.265,221.700 116.614 L 223.000 117.248 222.000 116.433 C 221.037 115.648,220.400 115.392,220.400 115.790 M66.345 117.868 C 61.005 121.523,50.435 133.600,52.575 133.600 C 52.680 133.600,53.258 132.745,53.860 131.700 C 56.633 126.884,61.942 121.174,66.270 118.354 C 68.544 116.873,69.119 116.400,68.645 116.400 C 68.560 116.400,67.525 117.061,66.345 117.868 M112.400 116.521 C 112.400 116.612,113.410 117.357,114.644 118.177 C 115.879 118.996,118.437 121.137,120.329 122.933 C 122.222 124.730,123.136 125.442,122.360 124.516 C 120.228 121.969,112.400 115.685,112.400 116.521 M285.893 117.414 C 285.072 117.972,284.400 118.515,284.400 118.620 C 284.400 118.725,285.120 118.335,286.000 117.753 C 287.397 116.828,287.870 116.400,287.493 116.400 C 287.434 116.400,286.714 116.856,285.893 117.414 M331.200 116.514 C 331.200 116.588,332.325 117.396,333.700 118.310 C 335.075 119.223,337.367 121.058,338.793 122.386 C 341.576 124.977,342.490 125.580,340.575 123.562 C 338.205 121.063,331.200 115.797,331.200 116.514 M223.400 117.466 C 224.721 118.701,227.599 120.802,227.591 120.527 C 227.587 120.347,226.834 119.660,225.919 119.000 C 224.073 117.669,222.762 116.870,223.400 117.466 M173.767 119.436 L 172.200 120.873 173.900 119.603 C 175.417 118.469,175.876 118.000,175.467 118.000 C 175.393 118.000,174.628 118.646,173.767 119.436 M280.489 121.900 C 277.371 124.961,277.367 124.967,280.165 122.425 C 281.724 121.008,283.264 119.613,283.586 119.325 C 283.908 119.036,284.054 118.800,283.909 118.800 C 283.765 118.800,282.226 120.195,280.489 121.900 M169.686 122.913 C 168.539 124.074,167.600 125.167,167.600 125.341 C 167.600 125.515,167.825 125.407,168.100 125.102 C 168.375 124.797,169.402 123.704,170.383 122.673 C 172.826 120.108,172.267 120.299,169.686 122.913 M230.000 123.000 C 231.195 124.210,232.263 125.200,232.373 125.200 C 232.483 125.200,231.595 124.210,230.400 123.000 C 229.205 121.790,228.137 120.800,228.027 120.800 C 227.917 120.800,228.805 121.790,230.000 123.000 M344.702 129.333 C 345.526 130.531,346.262 131.453,346.339 131.383 C 346.519 131.218,344.109 127.715,343.596 127.398 C 343.380 127.264,343.878 128.135,344.702 129.333 M127.160 131.400 C 127.834 132.705,128.388 133.428,128.385 133.000 C 128.383 132.780,128.014 132.150,127.564 131.600 C 127.021 130.936,126.885 130.869,127.160 131.400 M272.214 131.835 C 271.841 132.404,271.605 132.938,271.689 133.022 C 271.773 133.107,272.158 132.641,272.544 131.988 C 273.406 130.528,273.148 130.409,272.214 131.835 M237.400 132.800 C 237.741 133.460,238.111 134.000,238.221 134.000 C 238.331 134.000,238.141 133.460,237.800 132.800 C 237.459 132.140,237.089 131.600,236.979 131.600 C 236.869 131.600,237.059 132.140,237.400 132.800 M347.225 133.500 C 347.696 134.435,348.136 135.200,348.203 135.200 C 348.524 135.200,347.871 133.691,347.164 132.800 C 346.432 131.878,346.437 131.933,347.225 133.500 M51.472 135.419 C 50.532 137.389,50.664 137.724,51.647 135.862 C 52.093 135.016,52.387 134.254,52.301 134.167 C 52.214 134.081,51.841 134.644,51.472 135.419 M85.800 135.603 C 85.285 135.826,85.713 135.867,87.000 135.718 C 88.100 135.591,89.075 135.423,89.167 135.344 C 89.514 135.045,86.564 135.272,85.800 135.603 M92.033 135.344 C 92.125 135.423,93.100 135.591,94.200 135.718 C 95.487 135.867,95.915 135.826,95.400 135.603 C 94.636 135.272,91.686 135.045,92.033 135.344 M195.246 135.563 C 194.907 135.778,195.451 135.832,196.646 135.704 C 197.721 135.588,198.675 135.428,198.767 135.347 C 199.129 135.028,195.765 135.235,195.246 135.563 M201.233 135.347 C 201.325 135.428,202.279 135.588,203.354 135.704 C 204.549 135.832,205.093 135.778,204.754 135.563 C 204.235 135.235,200.871 135.028,201.233 135.347 M269.853 136.535 C 269.125 138.278,268.644 139.853,268.917 139.600 C 269.249 139.293,270.814 135.200,270.600 135.200 C 270.496 135.200,270.160 135.801,269.853 136.535 M304.821 135.579 C 304.446 135.816,304.870 135.865,306.021 135.718 C 306.999 135.592,307.875 135.425,307.967 135.345 C 308.342 135.019,305.355 135.240,304.821 135.579 M311.505 135.483 C 312.002 135.579,312.722 135.575,313.105 135.475 C 313.487 135.375,313.080 135.296,312.200 135.301 C 311.320 135.305,311.007 135.387,311.505 135.483 M348.446 135.800 C 348.453 136.020,348.806 136.920,349.229 137.800 C 349.652 138.680,349.886 138.950,349.749 138.400 C 349.467 137.267,348.425 135.188,348.446 135.800 M192.300 136.629 C 190.749 137.470,190.925 137.761,192.500 136.959 C 194.008 136.193,194.275 135.994,193.767 136.016 C 193.565 136.025,192.905 136.301,192.300 136.629 M206.033 136.149 C 206.445 136.517,208.800 137.600,208.800 137.421 C 208.800 137.190,206.582 136.000,206.153 136.000 C 205.996 136.000,205.942 136.067,206.033 136.149 M315.600 136.286 C 315.930 136.409,316.695 136.760,317.300 137.065 C 317.905 137.371,318.400 137.531,318.400 137.421 C 318.400 137.107,316.098 135.996,315.520 136.032 C 315.171 136.053,315.197 136.136,315.600 136.286 M130.015 136.800 C 130.010 136.910,130.454 138.322,131.003 139.938 C 131.551 141.554,132.014 143.174,132.032 143.538 C 132.052 143.957,132.138 144.016,132.266 143.698 C 132.377 143.422,132.076 141.982,131.597 140.498 C 130.816 138.078,130.040 136.265,130.015 136.800 M79.374 138.764 C 78.504 139.405,77.187 140.710,76.449 141.664 L 75.107 143.400 76.853 141.588 C 77.814 140.591,79.230 139.288,80.000 138.692 C 81.879 137.238,81.371 137.296,79.374 138.764 M319.020 137.932 C 319.229 138.114,320.300 138.945,321.400 139.778 L 323.400 141.292 321.400 139.454 C 320.300 138.443,319.229 137.613,319.020 137.608 C 318.780 137.603,318.780 137.722,319.020 137.932 M210.800 138.478 C 210.800 138.759,214.486 142.448,214.626 142.307 C 214.684 142.248,214.330 141.750,213.838 141.200 C 212.634 139.853,210.800 138.209,210.800 138.478 M296.557 140.364 C 295.481 141.444,294.277 142.929,293.883 143.664 C 293.206 144.925,293.205 144.944,293.877 144.000 C 294.269 143.450,295.564 141.965,296.755 140.700 C 299.401 137.892,299.259 137.652,296.557 140.364 M186.940 140.500 C 185.128 142.436,183.458 144.791,183.715 145.048 C 183.839 145.173,184.206 144.763,184.530 144.137 C 184.854 143.512,185.873 142.145,186.794 141.100 C 188.688 138.950,188.793 138.521,186.940 140.500 M103.200 140.060 C 103.200 140.187,103.740 140.969,104.400 141.800 C 105.060 142.631,105.593 143.150,105.584 142.955 C 105.566 142.564,103.200 139.691,103.200 140.060 M268.229 141.029 C 268.081 141.615,268.038 142.172,268.132 142.266 C 268.227 142.360,268.424 141.958,268.571 141.371 C 268.719 140.785,268.762 140.228,268.668 140.134 C 268.573 140.040,268.376 140.442,268.229 141.029 M240.812 140.800 C 240.812 141.130,240.987 141.670,241.200 142.000 C 241.545 142.533,241.588 142.533,241.588 142.000 C 241.588 141.670,241.413 141.130,241.200 140.800 C 240.855 140.267,240.812 140.267,240.812 140.800 M158.667 141.067 C 158.520 141.213,158.411 141.708,158.425 142.167 C 158.449 142.933,158.482 142.923,158.834 142.042 C 159.226 141.063,159.144 140.589,158.667 141.067 M350.868 142.600 C 350.862 143.040,351.011 143.760,351.200 144.200 C 351.638 145.219,351.638 144.168,351.200 142.800 C 350.943 141.996,350.877 141.957,350.868 142.600 M48.600 143.600 C 48.450 144.073,48.417 144.550,48.527 144.660 C 48.637 144.770,48.850 144.473,49.000 144.000 C 49.150 143.527,49.183 143.050,49.073 142.940 C 48.963 142.830,48.750 143.127,48.600 143.600 M267.422 144.222 C 267.272 145.025,267.228 145.762,267.326 145.860 C 267.424 145.957,267.627 145.381,267.778 144.578 C 267.928 143.775,267.972 143.038,267.874 142.940 C 267.776 142.843,267.573 143.419,267.422 144.222 M157.849 144.215 C 157.712 144.573,157.620 145.436,157.644 146.133 C 157.682 147.237,157.733 147.171,158.036 145.625 C 158.393 143.805,158.294 143.057,157.849 144.215 M241.838 145.000 C 242.170 146.984,242.402 147.304,242.394 145.767 C 242.391 145.125,242.204 144.330,241.979 144.000 C 241.686 143.570,241.646 143.854,241.838 145.000 M324.809 143.900 C 324.814 144.065,325.185 144.650,325.633 145.200 L 326.448 146.200 325.814 144.900 C 325.211 143.665,324.789 143.245,324.809 143.900 M182.955 146.300 C 182.834 146.685,182.570 147.413,182.367 147.919 C 182.165 148.424,182.023 149.414,182.050 150.119 C 182.098 151.338,182.115 151.323,182.405 149.800 C 182.573 148.920,182.898 147.615,183.127 146.900 C 183.357 146.185,183.461 145.600,183.360 145.600 C 183.258 145.600,183.076 145.915,182.955 146.300 M351.887 148.600 C 352.008 150.360,352.174 151.875,352.254 151.967 C 352.533 152.285,352.352 148.590,352.010 147.000 C 351.763 145.851,351.729 146.302,351.887 148.600 M132.901 147.400 C 132.905 148.280,132.987 148.593,133.083 148.095 C 133.179 147.598,133.175 146.878,133.075 146.495 C 132.975 146.113,132.896 146.520,132.901 147.400 M47.859 147.888 C 47.721 148.719,47.631 150.300,47.659 151.400 C 47.697 152.923,47.787 152.592,48.035 150.014 C 48.377 146.456,48.283 145.319,47.859 147.888 M266.909 148.000 C 266.909 148.990,266.987 149.395,267.082 148.900 C 267.178 148.405,267.178 147.595,267.082 147.100 C 266.987 146.605,266.909 147.010,266.909 148.000 M326.428 147.076 C 326.413 147.558,326.580 148.064,326.800 148.200 C 327.273 148.492,327.273 148.101,326.800 147.000 C 326.469 146.229,326.455 146.231,326.428 147.076 M107.628 147.476 C 107.613 147.958,107.780 148.464,108.000 148.600 C 108.473 148.892,108.473 148.501,108.000 147.400 C 107.669 146.629,107.655 146.631,107.628 147.476 M217.444 148.600 C 217.773 150.071,218.002 150.390,217.994 149.367 C 217.991 148.945,217.805 148.330,217.582 148.000 C 217.285 147.562,217.248 147.724,217.444 148.600 M157.054 150.256 C 156.725 152.659,156.814 249.026,157.147 250.577 C 157.286 251.224,157.400 228.499,157.400 200.077 C 157.400 171.655,157.379 148.400,157.354 148.400 C 157.329 148.400,157.194 149.235,157.054 150.256 M242.600 200.000 C 242.600 228.406,242.717 251.232,242.860 250.724 C 243.003 250.216,243.120 227.390,243.120 200.000 C 243.120 172.610,243.003 149.784,242.860 149.276 C 242.717 148.768,242.600 171.594,242.600 200.000 M72.254 151.456 C 71.917 153.917,71.971 169.775,72.323 171.758 C 72.475 172.615,72.600 167.980,72.600 161.458 C 72.600 154.936,72.579 149.600,72.554 149.600 C 72.529 149.600,72.394 150.435,72.254 151.456 M133.334 152.400 C 133.334 154.050,133.405 154.725,133.491 153.900 C 133.578 153.075,133.578 151.725,133.491 150.900 C 133.405 150.075,133.334 150.750,133.334 152.400 M327.287 150.800 C 327.283 151.570,327.424 152.650,327.600 153.200 C 328.048 154.599,328.048 152.361,327.600 150.600 L 327.295 149.400 327.287 150.800 M108.440 151.633 C 108.462 152.605,108.631 153.850,108.816 154.400 C 109.026 155.027,109.066 154.430,108.923 152.800 C 108.655 149.756,108.383 149.098,108.440 151.633 M266.499 161.200 C 266.483 167.470,266.589 173.500,266.735 174.600 C 266.988 176.508,266.906 153.495,266.651 151.000 C 266.583 150.340,266.515 154.930,266.499 161.200 M291.376 161.400 C 291.376 167.560,291.432 170.024,291.499 166.876 C 291.567 163.727,291.567 158.687,291.499 155.676 C 291.431 152.664,291.376 155.240,291.376 161.400 M218.194 200.000 C 218.194 226.950,218.242 237.975,218.300 224.500 C 218.358 211.025,218.358 188.975,218.300 175.500 C 218.242 162.025,218.194 173.050,218.194 200.000 M181.794 200.000 C 181.794 226.730,181.842 237.665,181.900 224.300 C 181.958 210.935,181.958 189.065,181.900 175.700 C 181.842 162.335,181.794 173.270,181.794 200.000 M351.840 155.642 C 351.114 160.180,347.870 163.560,342.800 165.059 L 341.000 165.591 342.578 165.363 C 346.064 164.858,349.403 162.323,351.187 158.826 C 351.947 157.337,352.718 154.000,352.302 154.000 C 352.192 154.000,351.984 154.739,351.840 155.642 M132.832 156.104 C 132.771 157.449,131.165 160.278,129.487 161.994 C 128.216 163.294,128.077 163.542,128.923 162.999 C 130.828 161.776,133.554 157.125,133.072 155.920 C 132.938 155.587,132.852 155.653,132.832 156.104 M111.340 160.837 C 112.799 163.097,117.266 165.681,119.514 165.564 C 119.891 165.545,119.390 165.304,118.400 165.029 C 115.757 164.295,114.159 163.363,112.315 161.479 C 111.344 160.487,110.945 160.224,111.340 160.837 M331.200 162.154 C 331.200 162.239,331.695 162.627,332.300 163.016 L 333.400 163.724 332.638 162.862 C 331.964 162.099,331.200 161.723,331.200 162.154 M126.629 164.072 C 126.205 164.318,125.035 164.760,124.029 165.055 C 122.214 165.587,122.212 165.590,123.786 165.361 C 125.297 165.142,127.600 164.193,127.600 163.790 C 127.600 163.532,127.518 163.556,126.629 164.072 M333.600 163.776 C 333.600 164.191,335.879 165.139,337.414 165.361 L 339.000 165.591 337.198 165.062 C 336.206 164.771,334.991 164.317,334.498 164.052 C 334.004 163.788,333.600 163.664,333.600 163.776 M47.647 171.833 C 47.673 173.135,47.831 174.740,47.997 175.400 C 48.164 176.061,48.208 175.072,48.094 173.200 C 47.855 169.240,47.579 168.396,47.647 171.833 M267.268 177.600 C 267.288 178.639,267.918 180.346,267.932 179.400 C 267.938 178.960,267.789 178.240,267.600 177.800 C 267.389 177.310,267.261 177.232,267.268 177.600 M48.434 178.200 C 48.422 178.640,48.587 179.270,48.800 179.600 C 49.314 180.395,49.314 179.396,48.800 178.200 L 48.456 177.400 48.434 178.200 M293.934 179.164 C 294.987 180.986,298.019 184.029,299.668 184.917 C 300.864 185.561,300.898 185.563,300.000 184.935 C 298.723 184.042,294.781 180.107,293.855 178.800 C 293.378 178.126,293.403 178.245,293.934 179.164 M268.056 180.800 C 268.056 181.130,268.211 181.760,268.400 182.200 C 268.617 182.704,268.744 182.778,268.744 182.400 C 268.744 182.070,268.589 181.440,268.400 181.000 C 268.183 180.496,268.056 180.422,268.056 180.800 M78.200 183.031 C 79.080 183.801,80.160 184.619,80.600 184.848 C 81.040 185.077,80.772 184.755,80.004 184.132 C 79.236 183.510,78.291 182.685,77.904 182.300 C 77.517 181.915,77.065 181.607,76.900 181.615 C 76.735 181.623,77.320 182.260,78.200 183.031 M268.998 183.965 C 269.475 185.513,270.394 187.600,270.600 187.600 C 270.814 187.600,269.249 183.507,268.917 183.200 C 268.798 183.090,268.834 183.434,268.998 183.965 M81.600 185.358 C 81.600 185.628,83.935 186.675,85.200 186.970 L 86.200 187.204 85.200 186.754 C 84.650 186.507,83.750 186.109,83.200 185.871 C 82.650 185.633,82.065 185.374,81.900 185.295 C 81.735 185.217,81.600 185.245,81.600 185.358 M50.834 185.800 C 50.834 186.020,51.178 186.830,51.600 187.600 C 52.022 188.370,52.366 188.820,52.366 188.600 C 52.366 188.380,52.022 187.570,51.600 186.800 C 51.178 186.030,50.834 185.580,50.834 185.800 M304.846 187.237 C 305.365 187.565,308.729 187.772,308.367 187.453 C 308.275 187.372,307.321 187.212,306.246 187.096 C 305.051 186.968,304.507 187.022,304.846 187.237 M87.100 187.482 C 87.595 187.578,88.405 187.578,88.900 187.482 C 89.395 187.387,88.990 187.309,88.000 187.309 C 87.010 187.309,86.605 187.387,87.100 187.482 M91.305 187.887 C 91.914 187.979,92.814 187.977,93.305 187.882 C 93.797 187.787,93.300 187.711,92.200 187.714 C 91.100 187.717,90.697 187.795,91.305 187.887 M310.100 187.887 C 310.705 187.978,311.695 187.978,312.300 187.887 C 312.905 187.795,312.410 187.720,311.200 187.720 C 309.990 187.720,309.495 187.795,310.100 187.887 M95.233 188.144 C 95.325 188.223,96.390 188.389,97.600 188.512 C 98.969 188.651,99.498 188.608,99.000 188.396 C 98.233 188.070,94.889 187.847,95.233 188.144 M314.033 188.144 C 314.125 188.223,315.190 188.389,316.400 188.512 C 317.769 188.651,318.298 188.608,317.800 188.396 C 317.033 188.070,313.689 187.847,314.033 188.144 M100.033 188.944 C 100.125 189.023,100.740 189.208,101.400 189.356 C 102.276 189.552,102.438 189.515,102.000 189.218 C 101.460 188.853,99.632 188.598,100.033 188.944 M318.833 188.943 C 318.925 189.021,319.630 189.201,320.400 189.342 C 321.385 189.523,321.622 189.482,321.200 189.206 C 320.658 188.850,318.437 188.603,318.833 188.943 M53.460 191.100 C 55.219 194.156,59.185 199.200,59.828 199.200 C 60.012 199.200,59.527 198.525,58.750 197.700 C 56.899 195.734,55.204 193.447,53.857 191.100 C 53.257 190.055,52.676 189.200,52.566 189.200 C 52.456 189.200,52.858 190.055,53.460 191.100 M271.615 189.800 C 271.617 190.020,271.986 190.650,272.436 191.200 C 272.979 191.864,273.115 191.931,272.840 191.400 C 272.166 190.095,271.612 189.372,271.615 189.800 M274.896 194.995 C 275.393 195.762,275.944 196.392,276.120 196.395 C 276.297 196.398,275.960 195.770,275.373 195.000 C 274.000 193.200,273.732 193.197,274.896 194.995 M333.194 195.182 C 333.741 195.602,334.268 195.866,334.365 195.769 C 334.591 195.542,333.129 194.427,332.600 194.422 C 332.380 194.420,332.647 194.761,333.194 195.182 M336.000 196.925 C 336.000 197.283,338.959 199.975,339.146 199.787 C 339.228 199.705,339.041 199.405,338.730 199.119 C 336.686 197.244,336.000 196.692,336.000 196.925 M120.589 200.323 C 122.123 201.905,123.449 203.200,123.536 203.200 C 123.834 203.200,120.996 200.196,119.400 198.823 C 118.520 198.066,119.055 198.741,120.589 200.323 M278.000 198.564 C 279.207 199.969,281.515 202.119,283.065 203.281 C 284.403 204.284,284.000 203.875,280.000 200.175 C 278.350 198.649,277.450 197.924,278.000 198.564 M60.834 200.254 C 60.852 200.444,61.572 201.206,62.434 201.946 C 63.295 202.687,63.985 203.137,63.966 202.946 C 63.948 202.756,63.228 201.994,62.366 201.254 C 61.505 200.513,60.815 200.063,60.834 200.254 M341.400 202.400 C 344.056 205.120,343.751 204.420,340.929 201.318 C 340.669 201.033,340.318 200.800,340.147 200.800 C 339.977 200.800,340.541 201.520,341.400 202.400 M124.627 205.000 C 126.000 206.800,126.268 206.803,125.104 205.005 C 124.607 204.238,124.056 203.608,123.880 203.605 C 123.703 203.602,124.040 204.230,124.627 205.000 M65.605 204.294 C 65.611 204.679,68.416 206.517,68.646 206.287 C 68.740 206.194,68.093 205.638,67.208 205.053 C 66.324 204.468,65.602 204.126,65.605 204.294 M344.393 206.100 C 345.132 207.145,345.805 208.000,345.890 208.000 C 346.208 208.000,344.571 205.521,343.826 204.873 C 343.400 204.503,343.655 205.055,344.393 206.100 M127.160 208.600 C 127.834 209.905,128.388 210.628,128.385 210.200 C 128.383 209.980,128.014 209.350,127.564 208.800 C 127.021 208.136,126.885 208.069,127.160 208.600 M347.739 211.885 C 348.460 213.378,349.264 215.050,349.527 215.600 L 350.004 216.600 349.745 215.600 C 349.398 214.267,347.175 209.632,346.759 209.374 C 346.577 209.262,347.018 210.392,347.739 211.885 M78.800 210.782 C 79.130 211.005,79.745 211.191,80.167 211.194 C 81.190 211.202,80.871 210.973,79.400 210.644 C 78.524 210.448,78.362 210.485,78.800 210.782 M297.790 210.784 C 297.932 211.013,298.517 211.200,299.090 211.200 C 300.344 211.200,300.199 211.008,298.666 210.640 C 297.923 210.462,297.621 210.511,297.790 210.784 M82.000 211.597 C 82.541 211.950,85.964 212.199,85.567 211.856 C 85.475 211.777,84.500 211.599,83.400 211.459 C 82.035 211.286,81.590 211.330,82.000 211.597 M300.800 211.597 C 301.341 211.950,304.764 212.199,304.367 211.856 C 304.275 211.777,303.300 211.599,302.200 211.459 C 300.835 211.286,300.390 211.330,300.800 211.597 M90.800 212.593 C 93.110 212.891,95.540 213.246,96.200 213.383 C 97.120 213.574,97.042 213.497,95.864 213.051 C 95.018 212.731,92.588 212.376,90.464 212.261 L 86.600 212.053 90.800 212.593 M306.500 212.287 C 307.105 212.378,308.095 212.378,308.700 212.287 C 309.305 212.195,308.810 212.120,307.600 212.120 C 306.390 212.120,305.895 212.195,306.500 212.287 M130.029 214.400 C 130.517 215.610,131.279 217.996,131.723 219.702 C 132.166 221.408,132.605 222.729,132.697 222.637 C 133.140 222.193,130.404 213.577,129.509 212.600 C 129.308 212.380,129.542 213.190,130.029 214.400 M310.905 212.687 C 311.514 212.779,312.414 212.777,312.905 212.682 C 313.397 212.587,312.900 212.511,311.800 212.514 C 310.700 212.517,310.297 212.595,310.905 212.687 M314.200 213.200 C 314.336 213.420,314.842 213.587,315.324 213.572 C 316.169 213.545,316.171 213.531,315.400 213.200 C 314.299 212.727,313.908 212.727,314.200 213.200 M100.000 215.065 C 101.292 215.968,105.232 219.908,106.135 221.200 C 106.764 222.098,106.762 222.064,106.117 220.864 C 105.195 219.145,102.055 216.005,100.336 215.083 C 99.136 214.438,99.102 214.436,100.000 215.065 M322.200 217.937 C 323.520 219.291,324.653 220.399,324.719 220.399 C 325.092 220.401,322.163 217.179,321.084 216.401 C 320.339 215.864,320.808 216.509,322.200 217.937 M350.856 220.000 C 350.856 220.330,351.011 220.960,351.200 221.400 C 351.417 221.904,351.544 221.978,351.544 221.600 C 351.544 221.270,351.389 220.640,351.200 220.200 C 350.983 219.696,350.856 219.622,350.856 220.000 M351.887 225.800 C 352.008 227.560,352.174 229.075,352.254 229.167 C 352.533 229.485,352.352 225.790,352.010 224.200 C 351.763 223.051,351.729 223.502,351.887 225.800 M132.901 224.600 C 132.905 225.480,132.987 225.793,133.083 225.295 C 133.179 224.798,133.175 224.078,133.075 223.695 C 132.975 223.313,132.896 223.720,132.901 224.600 M133.377 238.600 C 133.377 245.200,133.432 247.956,133.499 244.725 C 133.566 241.493,133.566 236.093,133.499 232.725 C 133.432 229.356,133.377 232.000,133.377 238.600 M327.400 238.804 C 327.400 245.468,327.525 250.218,327.677 249.360 C 327.829 248.502,327.954 243.750,327.954 238.800 C 327.954 233.850,327.829 229.100,327.677 228.244 C 327.525 227.388,327.400 232.140,327.400 238.804 M108.507 238.600 C 108.507 245.582,108.631 249.404,108.818 248.200 C 108.990 247.100,109.130 242.780,109.130 238.600 C 109.130 234.420,108.990 230.100,108.818 229.000 C 108.631 227.796,108.507 231.618,108.507 238.600 M56.600 234.819 C 56.042 235.071,56.285 235.107,57.400 234.938 C 58.280 234.804,59.075 234.628,59.167 234.547 C 59.510 234.244,57.368 234.471,56.600 234.819 M60.833 234.547 C 60.925 234.628,61.720 234.804,62.600 234.938 C 63.715 235.107,63.958 235.071,63.400 234.819 C 62.632 234.471,60.490 234.244,60.833 234.547 M275.400 234.819 C 274.842 235.071,275.085 235.107,276.200 234.938 C 277.080 234.804,277.875 234.628,277.967 234.547 C 278.310 234.244,276.168 234.471,275.400 234.819 M281.400 234.926 C 283.715 235.534,284.785 236.063,287.000 237.694 L 288.600 238.872 287.200 237.606 C 285.305 235.892,283.222 234.863,281.137 234.611 L 279.400 234.401 281.400 234.926 M53.069 236.437 C 52.042 237.118,51.075 237.883,50.921 238.137 C 50.766 238.392,51.261 238.132,52.020 237.561 C 52.779 236.990,53.940 236.232,54.600 235.877 C 55.260 235.522,55.606 235.225,55.369 235.216 C 55.131 235.207,54.097 235.757,53.069 236.437 M66.052 236.347 C 67.046 236.978,68.452 238.103,69.175 238.847 L 70.489 240.200 69.560 238.887 C 68.697 237.669,65.368 235.200,64.587 235.200 C 64.398 235.200,65.057 235.716,66.052 236.347 M270.905 237.500 C 269.832 238.545,269.595 238.842,270.377 238.160 C 271.160 237.478,272.245 236.623,272.789 236.260 C 273.333 235.897,273.571 235.600,273.317 235.600 C 273.063 235.600,271.978 236.455,270.905 237.500 M267.781 241.237 C 267.429 241.918,267.212 242.545,267.299 242.632 C 267.386 242.719,267.756 242.162,268.122 241.395 C 268.944 239.670,268.659 239.538,267.781 241.237 M47.852 243.700 C 47.547 244.840,47.613 251.018,47.947 252.580 C 48.086 253.228,48.200 251.294,48.200 248.280 C 48.200 242.328,48.204 242.386,47.852 243.700 M266.650 244.450 C 266.338 246.008,266.382 249.175,266.752 251.800 C 266.944 253.164,267.028 252.114,267.017 248.501 C 266.998 242.639,267.003 242.687,266.650 244.450 M291.057 247.000 C 291.191 248.320,291.368 249.475,291.450 249.567 C 291.769 249.921,291.524 246.156,291.179 245.400 C 290.938 244.872,290.896 245.416,291.057 247.000 M72.063 246.600 C 72.054 247.040,72.195 248.120,72.377 249.000 L 72.708 250.600 72.714 249.200 C 72.717 248.430,72.576 247.350,72.400 246.800 C 72.141 245.991,72.077 245.953,72.063 246.600 M351.880 250.966 C 351.726 252.708,351.673 254.207,351.764 254.298 C 352.011 254.544,352.506 249.436,352.321 248.558 C 352.233 248.141,352.035 249.225,351.880 250.966 M182.056 249.800 C 182.013 250.972,182.792 253.725,183.314 254.247 C 183.458 254.391,183.381 253.899,183.143 253.154 C 182.905 252.409,182.573 251.080,182.405 250.200 C 182.138 248.799,182.095 248.749,182.056 249.800 M217.646 250.467 C 217.621 250.834,217.496 251.464,217.370 251.867 C 217.152 252.562,217.163 252.563,217.597 251.887 C 217.848 251.496,217.973 250.866,217.873 250.487 C 217.711 249.868,217.688 249.866,217.646 250.467 M107.867 251.467 C 107.720 251.613,107.611 252.108,107.625 252.567 C 107.649 253.333,107.682 253.323,108.034 252.442 C 108.426 251.463,108.344 250.989,107.867 251.467 M132.862 252.400 C 132.822 253.170,132.696 254.250,132.583 254.800 L 132.377 255.800 132.808 254.814 C 133.044 254.271,133.170 253.191,133.086 252.414 L 132.934 251.000 132.862 252.400 M326.667 251.867 C 326.520 252.013,326.411 252.508,326.425 252.967 C 326.449 253.733,326.482 253.723,326.834 252.842 C 327.226 251.863,327.144 251.389,326.667 251.867 M157.606 254.033 C 157.609 254.785,157.792 255.670,158.012 256.000 C 158.291 256.419,158.333 256.058,158.150 254.800 C 157.825 252.559,157.598 252.240,157.606 254.033 M216.330 254.418 C 215.961 255.288,215.731 256.000,215.819 256.000 C 216.113 256.000,217.250 253.551,217.124 253.191 C 217.056 252.996,216.698 253.549,216.330 254.418 M242.060 254.067 C 242.027 254.654,241.896 255.464,241.770 255.867 C 241.552 256.560,241.565 256.561,241.995 255.890 C 242.246 255.499,242.377 254.689,242.286 254.090 L 242.120 253.000 242.060 254.067 M267.268 254.800 C 267.288 255.839,267.918 257.546,267.932 256.600 C 267.938 256.160,267.789 255.440,267.600 255.000 C 267.389 254.510,267.261 254.432,267.268 254.800 M183.600 254.933 C 183.600 255.526,185.908 258.582,187.563 260.181 C 188.463 261.051,189.200 261.630,189.200 261.469 C 189.200 261.308,188.551 260.606,187.758 259.909 C 186.964 259.213,185.704 257.736,184.958 256.627 C 184.211 255.518,183.600 254.756,183.600 254.933 M48.412 255.600 C 48.412 255.930,48.587 256.470,48.800 256.800 C 49.145 257.333,49.188 257.333,49.188 256.800 C 49.188 256.470,49.013 255.930,48.800 255.600 C 48.455 255.067,48.412 255.067,48.412 255.600 M351.000 256.400 C 350.848 257.091,350.807 257.741,350.909 257.842 C 351.011 257.944,351.209 257.453,351.350 256.750 C 351.491 256.047,351.531 255.398,351.441 255.308 C 351.350 255.217,351.152 255.709,351.000 256.400 M104.632 257.913 L 103.864 259.000 104.932 258.030 C 106.054 257.011,106.193 256.792,105.700 256.813 C 105.535 256.819,105.054 257.314,104.632 257.913 M294.400 257.091 C 294.400 257.631,298.212 261.474,299.318 262.049 C 300.407 262.616,300.221 262.404,298.276 260.859 C 297.437 260.193,296.222 258.983,295.576 258.169 C 294.929 257.356,294.400 256.870,294.400 257.091 M322.788 258.900 C 321.800 260.095,321.531 260.569,322.165 260.000 C 323.263 259.014,325.010 256.800,324.690 256.800 C 324.599 256.800,323.744 257.745,322.788 258.900 M158.428 257.876 C 158.413 258.358,158.580 258.864,158.800 259.000 C 159.273 259.292,159.273 258.901,158.800 257.800 C 158.469 257.029,158.455 257.031,158.428 257.876 M212.677 259.453 C 210.719 261.321,210.180 262.265,212.000 260.638 C 213.216 259.552,215.004 257.596,214.770 257.609 C 214.676 257.614,213.735 258.444,212.677 259.453 M268.056 258.000 C 268.056 258.330,268.211 258.960,268.400 259.400 C 268.617 259.904,268.744 259.978,268.744 259.600 C 268.744 259.270,268.589 258.640,268.400 258.200 C 268.183 257.696,268.056 257.622,268.056 258.000 M131.069 259.906 C 130.720 260.972,130.311 262.194,130.159 262.622 C 129.977 263.132,130.017 263.262,130.274 263.000 C 130.728 262.537,132.085 258.352,131.856 258.123 C 131.772 258.038,131.417 258.841,131.069 259.906 M76.800 258.957 C 76.800 259.050,77.700 259.879,78.800 260.800 C 79.900 261.721,80.790 262.323,80.777 262.137 C 80.754 261.800,76.800 258.638,76.800 258.957 M102.000 260.638 C 99.827 262.364,99.549 262.648,100.600 262.064 C 101.523 261.551,104.299 259.225,104.000 259.215 C 103.890 259.211,102.990 259.851,102.000 260.638 M268.998 261.165 C 269.475 262.713,270.394 264.800,270.600 264.800 C 270.814 264.800,269.249 260.707,268.917 260.400 C 268.798 260.290,268.834 260.634,268.998 261.165 M50.250 261.600 C 50.564 262.836,53.102 268.054,53.655 268.600 C 53.878 268.820,53.360 267.560,52.503 265.800 C 51.647 264.040,50.733 262.150,50.471 261.600 L 49.996 260.600 50.250 261.600 M349.067 262.467 C 348.705 263.388,348.474 264.207,348.554 264.288 C 348.634 264.368,349.000 263.683,349.367 262.767 C 349.733 261.850,349.964 261.031,349.879 260.946 C 349.794 260.861,349.429 261.545,349.067 262.467 M85.600 264.382 C 85.930 264.605,86.545 264.791,86.967 264.794 C 87.990 264.802,87.671 264.573,86.200 264.244 C 85.324 264.048,85.162 264.085,85.600 264.382 M94.200 264.400 L 93.400 264.744 94.200 264.766 C 94.640 264.778,95.270 264.613,95.600 264.400 C 96.395 263.886,95.396 263.886,94.200 264.400 M195.000 264.400 C 195.440 264.589,196.070 264.744,196.400 264.744 C 196.778 264.744,196.704 264.617,196.200 264.400 C 195.760 264.211,195.130 264.056,194.800 264.056 C 194.422 264.056,194.496 264.183,195.000 264.400 M203.800 264.400 C 203.296 264.617,203.222 264.744,203.600 264.744 C 203.930 264.744,204.560 264.589,205.000 264.400 C 205.504 264.183,205.578 264.056,205.200 264.056 C 204.870 264.056,204.240 264.211,203.800 264.400 M304.600 264.400 C 305.040 264.589,305.670 264.744,306.000 264.744 C 306.378 264.744,306.304 264.617,305.800 264.400 C 305.360 264.211,304.730 264.056,304.400 264.056 C 304.022 264.056,304.096 264.183,304.600 264.400 M128.261 266.700 L 127.574 268.200 128.378 267.200 C 129.071 266.338,129.467 265.200,129.074 265.200 C 129.005 265.200,128.639 265.875,128.261 266.700 M347.178 266.701 C 346.872 267.305,345.942 268.825,345.111 270.078 C 344.280 271.331,343.600 272.499,343.600 272.673 C 343.600 273.047,346.019 269.504,347.207 267.387 C 347.665 266.572,347.971 265.837,347.887 265.754 C 347.803 265.670,347.484 266.096,347.178 266.701 M271.615 267.000 C 271.617 267.220,271.986 267.850,272.436 268.400 C 272.979 269.064,273.115 269.131,272.840 268.600 C 272.166 267.295,271.612 266.572,271.615 267.000 M235.046 271.010 C 234.239 272.226,232.286 274.611,230.707 276.310 C 228.269 278.934,228.184 279.068,230.140 277.200 C 232.342 275.098,234.690 272.266,236.193 269.900 C 237.502 267.840,236.519 268.791,235.046 271.010 M54.643 270.327 C 55.059 271.057,55.748 271.957,56.174 272.327 C 56.624 272.718,56.466 272.331,55.796 271.400 C 54.193 269.174,53.750 268.761,54.643 270.327 M166.699 273.800 C 167.379 274.680,168.891 276.300,170.058 277.400 C 171.777 279.019,171.654 278.828,169.415 276.400 C 165.633 272.297,165.268 271.948,166.699 273.800 M58.110 274.837 C 60.308 277.560,64.894 281.414,68.500 283.569 C 71.157 285.157,70.097 284.194,66.798 282.023 C 65.037 280.864,62.028 278.360,60.112 276.458 C 58.110 274.472,57.258 273.782,58.110 274.837 M122.355 275.100 C 121.081 276.508,120.256 277.600,120.466 277.600 C 120.557 277.600,121.308 276.790,122.135 275.800 C 123.787 273.824,123.935 273.353,122.355 275.100 M277.753 275.601 C 278.548 276.481,279.964 277.865,280.899 278.677 C 281.835 279.489,281.255 278.769,279.610 277.077 C 276.421 273.795,275.360 272.951,277.753 275.601 M339.290 277.112 C 336.940 279.587,337.383 279.654,339.809 277.191 C 340.888 276.096,341.597 275.225,341.385 275.255 C 341.173 275.285,340.230 276.121,339.290 277.112 M118.574 278.827 C 117.931 279.498,116.009 280.965,114.303 282.088 C 111.117 284.185,110.019 285.186,112.700 283.550 C 115.959 281.561,120.256 278.123,119.913 277.780 C 119.819 277.685,119.216 278.157,118.574 278.827 M172.412 279.473 C 172.439 280.227,181.484 286.002,182.633 285.999 C 182.835 285.999,181.404 285.103,179.452 284.008 C 177.501 282.914,175.116 281.372,174.152 280.582 C 173.189 279.793,172.405 279.293,172.412 279.473 M335.200 280.649 C 332.634 282.656,332.264 283.163,334.518 281.583 C 336.200 280.404,337.585 279.160,337.149 279.221 C 337.067 279.232,336.190 279.875,335.200 280.649 M282.805 280.301 C 282.810 280.580,283.675 281.197,286.600 283.005 C 288.339 284.080,287.344 283.183,284.900 281.471 C 283.745 280.663,282.802 280.136,282.805 280.301 M223.681 282.172 C 221.823 283.485,221.562 283.861,223.131 282.962 C 223.863 282.543,224.650 281.975,224.880 281.700 C 225.471 280.993,225.193 281.102,223.681 282.172 M329.210 284.458 C 326.610 285.869,326.184 286.214,327.804 285.598 C 329.098 285.106,331.600 283.636,331.600 283.367 C 331.600 283.150,331.732 283.089,329.210 284.458 M219.200 284.800 C 217.990 285.439,217.141 285.971,217.313 285.981 C 217.738 286.007,221.600 284.036,221.600 283.793 C 221.600 283.526,221.655 283.503,219.200 284.800 M70.576 284.761 C 70.802 285.126,73.200 286.084,73.200 285.808 C 73.200 285.655,70.808 284.400,70.515 284.400 C 70.426 284.400,70.453 284.562,70.576 284.761 M188.000 288.000 C 188.330 288.213,188.870 288.388,189.200 288.388 C 189.733 288.388,189.733 288.345,189.200 288.000 C 188.870 287.787,188.330 287.612,188.000 287.612 C 187.467 287.612,187.467 287.655,188.000 288.000 M210.800 288.000 C 210.267 288.345,210.267 288.388,210.800 288.388 C 211.130 288.388,211.670 288.213,212.000 288.000 C 212.533 287.655,212.533 287.612,212.000 287.612 C 211.670 287.612,211.130 287.787,210.800 288.000 M81.800 288.781 C 82.568 289.129,84.710 289.356,84.367 289.053 C 84.275 288.972,83.480 288.796,82.600 288.662 C 81.485 288.493,81.242 288.529,81.800 288.781 M97.600 288.800 L 96.600 289.120 97.600 289.132 C 98.150 289.138,98.960 288.989,99.400 288.800 L 100.200 288.456 99.400 288.468 C 98.960 288.474,98.150 288.624,97.600 288.800 M191.200 288.800 C 191.530 289.013,192.250 289.173,192.800 289.154 L 193.800 289.120 192.800 288.800 C 191.258 288.306,190.436 288.306,191.200 288.800 M207.200 288.800 L 206.200 289.120 207.200 289.154 C 207.750 289.173,208.470 289.013,208.800 288.800 C 209.564 288.306,208.742 288.306,207.200 288.800 M300.800 288.800 C 301.130 289.013,301.850 289.173,302.400 289.154 L 303.400 289.120 302.400 288.800 C 300.858 288.306,300.036 288.306,300.800 288.800 M316.600 288.800 C 315.511 289.077,315.493 289.107,316.400 289.125 C 316.950 289.135,317.760 288.989,318.200 288.800 C 319.186 288.376,318.266 288.376,316.600 288.800 M88.515 289.496 C 89.788 289.576,91.768 289.575,92.915 289.494 C 94.062 289.414,93.020 289.349,90.600 289.350 C 88.180 289.351,87.242 289.416,88.515 289.496 M197.900 289.495 C 199.055 289.576,200.945 289.576,202.100 289.495 C 203.255 289.414,202.310 289.348,200.000 289.348 C 197.690 289.348,196.745 289.414,197.900 289.495 M307.315 289.496 C 308.588 289.576,310.568 289.575,311.715 289.494 C 312.862 289.414,311.820 289.349,309.400 289.350 C 306.980 289.351,306.042 289.416,307.315 289.496 " stroke="none" fill="#fc9283" fill-rule="evenodd"></path><path id="path4" d="M87.718 111.098 C 89.433 111.173,92.133 111.172,93.718 111.097 C 95.303 111.021,93.900 110.959,90.600 110.960 C 87.300 110.961,86.003 111.022,87.718 111.098 M193.000 111.185 C 192.340 111.357,190.720 111.733,189.400 112.021 C 185.125 112.954,176.334 117.152,174.811 118.986 C 174.524 119.332,175.836 118.644,177.726 117.458 C 182.635 114.375,186.273 112.986,193.027 111.615 C 195.345 111.144,204.577 111.231,208.600 111.762 C 209.511 111.883,209.166 111.728,207.800 111.404 C 205.207 110.789,195.095 110.639,193.000 111.185 M301.600 111.433 C 299.591 111.929,299.556 111.955,301.200 111.734 C 302.190 111.601,305.790 111.370,309.200 111.222 L 315.400 110.952 309.600 110.921 C 305.957 110.901,302.982 111.092,301.600 111.433 M82.000 111.477 C 80.388 111.749,75.433 113.297,75.027 113.656 C 74.822 113.838,75.272 113.796,76.027 113.563 C 78.006 112.954,81.150 112.096,83.000 111.660 C 84.595 111.284,83.900 111.157,82.000 111.477 M97.600 111.600 C 98.150 111.776,99.050 111.917,99.600 111.913 C 100.498 111.906,100.478 111.874,99.400 111.600 C 97.708 111.169,96.256 111.169,97.600 111.600 M317.200 111.665 C 319.637 112.216,326.499 114.391,326.998 114.770 C 327.537 115.180,328.800 115.620,328.800 115.397 C 328.800 114.709,320.426 111.839,317.391 111.488 L 315.400 111.257 317.200 111.665 M103.800 113.112 C 104.900 113.476,107.690 114.718,110.000 115.871 C 112.310 117.024,113.768 117.639,113.241 117.237 C 112.248 116.482,109.243 114.925,106.800 113.900 C 103.643 112.575,103.133 112.401,102.481 112.425 C 102.107 112.438,102.700 112.747,103.800 113.112 M213.495 113.183 C 217.071 114.470,219.897 115.884,223.516 118.198 C 225.432 119.423,226.460 119.960,225.800 119.392 C 223.080 117.052,213.877 112.375,212.068 112.414 C 211.701 112.422,212.343 112.768,213.495 113.183 M293.080 113.984 C 289.067 115.742,285.715 117.687,283.869 119.328 C 283.171 119.948,283.798 119.629,285.263 118.619 C 287.955 116.763,293.098 114.194,296.400 113.058 C 297.390 112.717,297.840 112.439,297.400 112.440 C 296.960 112.441,295.016 113.136,293.080 113.984 M71.400 115.222 C 70.080 115.878,68.550 116.774,68.000 117.213 C 67.450 117.652,68.620 117.170,70.600 116.140 C 74.533 114.096,74.706 113.993,74.167 114.015 C 73.965 114.023,72.720 114.566,71.400 115.222 M329.200 115.790 C 329.200 115.894,329.785 116.265,330.500 116.614 L 331.800 117.248 330.800 116.433 C 329.837 115.648,329.200 115.392,329.200 115.790 M114.540 118.303 C 114.696 118.556,115.391 119.167,116.084 119.660 C 116.777 120.154,117.217 120.350,117.060 120.097 C 116.904 119.844,116.209 119.233,115.516 118.740 C 114.823 118.246,114.383 118.050,114.540 118.303 M62.946 120.900 C 59.938 123.539,56.954 126.800,57.549 126.800 C 57.797 126.800,58.000 126.656,58.000 126.480 C 58.000 126.149,62.481 121.644,64.600 119.844 C 65.260 119.284,65.697 118.820,65.570 118.813 C 65.444 118.806,64.263 119.745,62.946 120.900 M336.391 120.660 C 339.155 123.108,342.026 126.164,343.592 128.325 C 344.259 129.246,344.905 130.000,345.027 130.000 C 346.067 130.000,338.228 121.415,335.556 119.627 C 334.799 119.120,335.168 119.576,336.391 120.660 M171.323 121.900 C 170.011 123.165,169.387 123.840,169.937 123.400 C 171.608 122.064,174.211 119.600,173.952 119.600 C 173.819 119.600,172.636 120.635,171.323 121.900 M120.683 123.656 C 122.471 125.556,124.604 128.121,125.423 129.356 C 126.913 131.599,127.913 132.578,126.593 130.500 C 125.038 128.052,122.700 125.263,120.138 122.800 C 117.660 120.418,117.706 120.489,120.683 123.656 M278.943 123.700 C 275.822 126.951,272.278 131.600,272.920 131.600 C 273.012 131.600,273.757 130.590,274.577 129.356 C 275.396 128.121,277.517 125.601,279.289 123.756 C 281.061 121.910,282.420 120.400,282.310 120.400 C 282.200 120.400,280.685 121.885,278.943 123.700 M229.874 123.400 C 231.304 124.830,232.587 126.000,232.725 126.000 C 232.864 126.000,231.817 124.830,230.400 123.400 C 228.983 121.970,227.700 120.800,227.549 120.800 C 227.398 120.800,228.444 121.970,229.874 123.400 M165.345 128.507 C 163.339 131.332,160.195 137.129,160.503 137.436 C 160.588 137.521,161.437 136.053,162.390 134.175 C 163.342 132.296,165.001 129.598,166.074 128.179 C 167.148 126.761,167.886 125.603,167.713 125.607 C 167.541 125.610,166.475 126.915,165.345 128.507 M233.540 127.516 C 234.033 128.209,234.644 128.904,234.897 129.060 C 235.150 129.217,234.954 128.777,234.460 128.084 C 233.967 127.391,233.356 126.696,233.103 126.540 C 232.850 126.383,233.046 126.823,233.540 127.516 M55.910 128.500 C 54.850 129.898,53.873 131.600,54.129 131.600 C 54.216 131.600,54.944 130.610,55.747 129.400 C 57.359 126.973,57.450 126.468,55.910 128.500 M236.030 131.000 C 236.524 131.880,237.100 132.780,237.310 133.000 C 237.909 133.628,236.539 131.094,235.796 130.200 C 235.430 129.760,235.535 130.120,236.030 131.000 M345.209 130.700 C 345.214 130.865,345.585 131.450,346.033 132.000 L 346.848 133.000 346.214 131.700 C 345.611 130.465,345.189 130.045,345.209 130.700 M127.209 132.300 C 127.214 132.465,127.585 133.050,128.033 133.600 L 128.848 134.600 128.214 133.300 C 127.611 132.065,127.189 131.645,127.209 132.300 M271.427 133.947 C 270.014 136.736,270.145 137.089,271.608 134.434 C 272.265 133.243,272.724 132.190,272.628 132.095 C 272.532 131.999,271.992 132.832,271.427 133.947 M237.600 133.813 C 237.600 133.931,238.050 134.915,238.600 136.000 C 239.150 137.085,239.600 138.239,239.600 138.563 C 239.600 138.887,239.768 139.257,239.974 139.384 C 240.465 139.687,239.955 137.933,238.846 135.500 C 238.080 133.819,237.600 133.169,237.600 133.813 M88.400 134.800 C 87.368 135.017,87.938 135.109,90.567 135.147 C 92.528 135.176,94.058 135.134,93.967 135.054 C 93.571 134.708,89.681 134.531,88.400 134.800 M197.800 134.800 C 196.583 135.018,197.101 135.100,199.967 135.143 C 202.038 135.174,203.658 135.134,203.567 135.054 C 203.173 134.710,199.267 134.538,197.800 134.800 M307.400 134.796 C 306.143 135.024,306.564 135.099,309.367 135.143 C 311.328 135.174,312.858 135.133,312.767 135.051 C 312.369 134.697,308.864 134.530,307.400 134.796 M51.472 136.219 C 50.532 138.189,50.664 138.524,51.647 136.662 C 52.093 135.816,52.387 135.054,52.301 134.967 C 52.214 134.881,51.841 135.444,51.472 136.219 M128.846 135.000 C 128.853 135.220,129.206 136.120,129.629 137.000 C 130.052 137.880,130.286 138.150,130.149 137.600 C 129.867 136.467,128.825 134.388,128.846 135.000 M84.600 135.600 C 84.096 135.817,84.022 135.944,84.400 135.944 C 84.730 135.944,85.360 135.789,85.800 135.600 C 86.304 135.383,86.378 135.256,86.000 135.256 C 85.670 135.256,85.040 135.411,84.600 135.600 M95.400 135.600 C 95.840 135.789,96.470 135.944,96.800 135.944 C 97.178 135.944,97.104 135.817,96.600 135.600 C 96.160 135.411,95.530 135.256,95.200 135.256 C 94.822 135.256,94.896 135.383,95.400 135.600 M193.997 135.574 C 192.595 136.000,190.291 137.224,190.498 137.432 C 190.593 137.527,191.375 137.256,192.235 136.831 C 193.096 136.405,194.250 135.877,194.800 135.656 C 195.970 135.186,195.448 135.132,193.997 135.574 M205.200 135.644 C 207.962 136.812,211.262 138.606,211.857 139.262 C 212.224 139.668,212.701 140.000,212.917 140.000 C 214.378 140.000,207.616 135.923,205.400 135.468 C 204.262 135.234,204.251 135.243,205.200 135.644 M303.400 135.600 L 302.600 135.944 303.400 135.966 C 303.840 135.978,304.470 135.813,304.800 135.600 C 305.595 135.086,304.596 135.086,303.400 135.600 M314.200 135.600 C 314.640 135.789,315.270 135.944,315.600 135.944 C 315.978 135.944,315.904 135.817,315.400 135.600 C 314.960 135.411,314.330 135.256,314.000 135.256 C 313.622 135.256,313.696 135.383,314.200 135.600 M80.791 137.413 C 75.885 140.576,71.905 146.842,72.034 151.200 C 72.050 151.750,72.310 151.067,72.610 149.683 C 73.732 144.517,77.544 139.319,81.711 137.272 C 82.750 136.762,83.600 136.267,83.600 136.172 C 83.600 135.757,82.836 136.094,80.791 137.413 M317.545 136.823 C 318.285 137.274,318.977 137.557,319.082 137.451 C 319.284 137.250,317.073 135.999,316.520 136.001 C 316.344 136.002,316.805 136.372,317.545 136.823 M99.200 136.899 C 99.200 136.965,100.280 137.806,101.600 138.767 C 102.920 139.728,104.007 140.624,104.016 140.757 C 104.048 141.233,106.400 143.761,106.400 143.320 C 106.400 142.652,101.843 138.146,100.426 137.413 C 99.752 137.065,99.200 136.833,99.200 136.899 M298.531 138.250 C 296.395 139.854,295.426 140.730,296.400 140.176 C 296.925 139.878,300.316 137.377,300.767 136.956 C 300.858 136.870,300.827 136.800,300.697 136.800 C 300.567 136.800,299.592 137.452,298.531 138.250 M187.342 139.691 C 186.126 140.840,184.952 142.145,184.734 142.591 C 184.516 143.036,184.936 142.715,185.668 141.878 C 186.401 141.042,187.720 139.743,188.600 138.993 C 189.480 138.244,190.054 137.623,189.876 137.615 C 189.698 137.607,188.557 138.541,187.342 139.691 M321.270 139.243 C 322.298 140.209,323.783 141.869,324.570 142.931 C 325.356 143.992,325.999 144.712,325.998 144.531 C 325.994 143.836,322.922 140.220,321.200 138.883 L 319.400 137.485 321.270 139.243 M159.457 140.057 C 159.090 141.193,158.859 142.192,158.944 142.277 C 159.028 142.362,159.401 141.504,159.771 140.371 C 160.142 139.239,160.373 138.240,160.285 138.151 C 160.197 138.063,159.824 138.921,159.457 140.057 M50.200 139.200 C 50.050 139.673,50.017 140.150,50.127 140.260 C 50.237 140.370,50.450 140.073,50.600 139.600 C 50.750 139.127,50.783 138.650,50.673 138.540 C 50.563 138.430,50.350 138.727,50.200 139.200 M240.561 140.800 C 240.971 142.913,241.519 144.572,241.553 143.800 C 241.572 143.360,241.313 142.280,240.978 141.400 C 240.642 140.520,240.455 140.250,240.561 140.800 M214.582 142.187 C 215.409 143.280,216.252 144.610,216.454 145.142 C 216.657 145.675,216.931 146.003,217.063 145.871 C 217.366 145.567,215.074 141.967,213.935 140.958 C 213.464 140.541,213.756 141.094,214.582 142.187 M49.400 142.000 C 49.248 142.691,49.207 143.341,49.309 143.442 C 49.411 143.544,49.609 143.053,49.750 142.350 C 50.083 140.683,49.760 140.360,49.400 142.000 M350.034 141.200 C 350.046 141.530,350.211 142.160,350.400 142.600 L 350.744 143.400 350.766 142.600 C 350.778 142.160,350.613 141.530,350.400 141.200 C 350.055 140.667,350.015 140.667,350.034 141.200 M268.229 142.229 C 268.081 142.815,268.038 143.372,268.132 143.466 C 268.227 143.560,268.424 143.158,268.571 142.571 C 268.719 141.985,268.762 141.428,268.668 141.334 C 268.573 141.240,268.376 141.642,268.229 142.229 M158.240 144.440 C 158.093 145.357,158.052 146.185,158.147 146.280 C 158.242 146.376,158.446 145.710,158.600 144.800 C 158.754 143.890,158.796 143.062,158.693 142.960 C 158.590 142.857,158.387 143.523,158.240 144.440 M350.868 144.200 C 350.874 144.640,351.024 145.450,351.200 146.000 L 351.520 147.000 351.532 146.000 C 351.538 145.450,351.389 144.640,351.200 144.200 L 350.856 143.400 350.868 144.200 M48.649 144.615 C 48.512 144.973,48.421 145.926,48.447 146.733 C 48.490 148.083,48.520 148.042,48.826 146.213 C 49.168 144.170,49.090 143.467,48.649 144.615 M107.027 145.200 C 107.852 146.912,108.003 147.094,107.991 146.367 C 107.986 146.055,107.615 145.350,107.167 144.800 L 106.352 143.800 107.027 145.200 M132.080 144.800 C 132.080 145.350,132.224 146.250,132.400 146.800 L 132.720 147.800 132.720 146.800 C 132.720 146.250,132.576 145.350,132.400 144.800 L 132.080 143.800 132.080 144.800 M267.400 146.000 C 267.246 146.910,267.204 147.738,267.307 147.840 C 267.410 147.943,267.613 147.277,267.760 146.360 C 267.907 145.443,267.948 144.615,267.853 144.520 C 267.758 144.424,267.554 145.090,267.400 146.000 M217.212 146.800 C 217.212 147.130,217.387 147.670,217.600 148.000 C 217.945 148.533,217.988 148.533,217.988 148.000 C 217.988 147.670,217.813 147.130,217.600 146.800 C 217.255 146.267,217.212 146.267,217.212 146.800 M242.200 200.000 C 242.200 229.370,242.315 252.320,242.457 251.000 C 242.792 247.867,242.792 152.133,242.457 149.000 C 242.315 147.680,242.200 170.630,242.200 200.000 M326.964 147.601 C 327.781 151.161,327.982 152.387,327.990 153.881 C 327.999 155.467,328.168 156.067,329.432 159.009 C 329.993 160.315,332.505 163.012,333.800 163.698 C 334.240 163.931,333.656 163.268,332.502 162.225 C 331.348 161.183,330.158 159.760,329.858 159.065 C 328.572 156.084,328.399 155.476,328.386 153.881 C 328.370 152.019,327.448 147.314,327.013 146.879 C 326.860 146.727,326.838 147.051,326.964 147.601 M108.258 148.400 C 108.575 150.125,108.802 150.451,108.794 149.167 C 108.791 148.635,108.611 147.930,108.394 147.600 C 108.118 147.178,108.077 147.415,108.258 148.400 M157.462 150.500 C 157.130 154.765,157.205 247.438,157.543 250.600 C 157.685 251.920,157.800 229.195,157.800 200.100 C 157.800 171.005,157.782 147.200,157.759 147.200 C 157.737 147.200,157.603 148.685,157.462 150.500 M291.449 148.215 C 291.312 148.573,291.218 149.256,291.241 149.733 C 291.267 150.281,291.403 150.086,291.610 149.203 C 291.960 147.716,291.865 147.133,291.449 148.215 M351.728 152.000 C 351.737 154.924,351.833 155.771,352.046 154.788 C 352.214 154.011,352.208 152.121,352.033 150.588 C 351.721 147.853,351.715 147.879,351.728 152.000 M48.124 150.600 C 48.126 151.920,48.201 152.412,48.290 151.693 C 48.379 150.974,48.377 149.894,48.286 149.293 C 48.195 148.692,48.122 149.280,48.124 150.600 M132.942 152.200 C 132.941 154.180,133.008 155.040,133.092 154.112 C 133.176 153.184,133.177 151.564,133.095 150.512 C 133.012 149.460,132.943 150.220,132.942 152.200 M218.200 200.000 C 218.200 228.186,218.317 250.832,218.460 250.324 C 218.603 249.816,218.720 227.170,218.720 200.000 C 218.720 172.830,218.603 150.184,218.460 149.676 C 218.317 149.168,218.200 171.814,218.200 200.000 M181.450 150.450 C 181.118 152.110,181.205 248.736,181.540 249.924 C 181.683 250.432,181.800 227.977,181.800 200.024 C 181.800 172.071,181.778 149.200,181.750 149.200 C 181.722 149.200,181.588 149.763,181.450 150.450 M266.977 161.400 C 266.977 168.000,267.032 170.756,267.099 167.525 C 267.166 164.293,267.166 158.893,267.099 155.525 C 267.032 152.156,266.977 154.800,266.977 161.400 M109.075 153.400 C 109.198 154.940,109.366 156.275,109.449 156.367 C 109.726 156.673,109.510 153.016,109.179 151.800 C 108.973 151.043,108.935 151.634,109.075 153.400 M290.654 152.656 C 290.300 155.243,290.391 168.218,290.780 170.400 C 290.982 171.535,291.118 168.246,291.150 161.500 C 291.200 150.711,291.119 149.264,290.654 152.656 M71.772 161.400 C 71.772 166.460,71.829 168.475,71.899 165.877 C 71.969 163.280,71.968 159.140,71.898 156.677 C 71.828 154.215,71.771 156.340,71.772 161.400 M47.769 161.400 C 47.770 166.020,47.828 167.855,47.899 165.478 C 47.970 163.101,47.969 159.321,47.898 157.078 C 47.827 154.835,47.769 156.780,47.769 161.400 M350.612 158.373 C 349.859 160.043,348.067 162.146,346.400 163.316 C 345.405 164.015,345.406 164.015,346.657 163.421 C 348.381 162.602,352.128 157.594,351.492 156.959 C 351.400 156.867,351.004 157.503,350.612 158.373 M110.766 159.500 C 110.983 159.885,111.634 160.740,112.212 161.400 C 113.008 162.308,112.948 162.138,111.964 160.700 C 110.680 158.822,110.002 158.144,110.766 159.500 M128.800 162.082 C 127.590 163.211,126.960 163.927,127.400 163.674 C 128.428 163.083,129.166 162.440,130.370 161.089 C 131.858 159.418,131.231 159.815,128.800 162.082 M119.700 165.299 C 120.648 165.540,121.752 165.540,122.700 165.299 C 124.041 164.959,123.881 164.919,121.200 164.919 C 118.519 164.919,118.359 164.959,119.700 165.299 M338.500 165.299 C 339.448 165.540,340.552 165.540,341.500 165.299 C 342.841 164.959,342.681 164.919,340.000 164.919 C 337.319 164.919,337.159 164.959,338.500 165.299 M48.124 172.200 C 48.126 173.520,48.201 174.012,48.290 173.293 C 48.379 172.574,48.377 171.494,48.286 170.893 C 48.195 170.292,48.122 170.880,48.124 172.200 M72.036 171.600 C 72.003 172.632,72.761 175.782,72.983 175.538 C 73.052 175.462,72.874 174.320,72.588 173.000 C 72.301 171.680,72.053 171.050,72.036 171.600 M291.206 173.233 C 291.209 173.765,291.389 174.470,291.606 174.800 C 291.882 175.222,291.923 174.985,291.742 174.000 C 291.425 172.275,291.198 171.949,291.206 173.233 M48.428 176.033 C 48.444 176.785,48.612 177.760,48.803 178.200 C 49.026 178.715,49.067 178.287,48.918 177.000 C 48.644 174.622,48.389 174.119,48.428 176.033 M267.275 175.800 C 267.265 176.460,267.411 177.360,267.600 177.800 L 267.944 178.600 267.925 177.800 C 267.914 177.360,267.768 176.460,267.600 175.800 L 267.295 174.600 267.275 175.800 M73.200 176.265 C 73.200 178.154,78.210 184.106,80.894 185.406 C 82.308 186.091,82.245 186.032,79.113 183.750 C 77.281 182.414,75.656 180.423,74.262 177.803 C 73.678 176.705,73.200 176.013,73.200 176.265 M268.056 179.400 C 268.056 179.840,268.211 180.560,268.400 181.000 L 268.744 181.800 268.744 181.000 C 268.744 180.560,268.589 179.840,268.400 179.400 L 268.056 178.600 268.056 179.400 M49.268 179.800 C 49.262 180.240,49.411 180.960,49.600 181.400 C 50.038 182.419,50.038 181.368,49.600 180.000 C 49.343 179.196,49.277 179.157,49.268 179.800 M294.810 181.000 C 296.340 183.122,301.218 186.807,302.481 186.795 C 302.766 186.793,301.957 186.208,300.682 185.495 C 299.406 184.783,297.434 183.300,296.298 182.200 C 295.162 181.100,294.492 180.560,294.810 181.000 M50.012 182.800 C 50.012 183.130,50.187 183.670,50.400 184.000 C 50.745 184.533,50.788 184.533,50.788 184.000 C 50.788 183.670,50.613 183.130,50.400 182.800 C 50.055 182.267,50.012 182.267,50.012 182.800 M50.834 185.000 C 50.834 185.220,51.178 186.030,51.600 186.800 C 52.022 187.570,52.366 188.020,52.366 187.800 C 52.366 187.580,52.022 186.770,51.600 186.000 C 51.178 185.230,50.834 184.780,50.834 185.000 M270.400 186.547 C 270.400 187.030,272.446 190.888,272.613 190.720 C 272.701 190.632,272.329 189.685,271.787 188.615 C 270.776 186.616,270.400 186.056,270.400 186.547 M303.600 187.200 C 303.930 187.413,304.470 187.588,304.800 187.588 C 305.333 187.588,305.333 187.545,304.800 187.200 C 304.470 186.987,303.930 186.812,303.600 186.812 C 303.067 186.812,303.067 186.855,303.600 187.200 M88.600 187.989 C 89.792 188.303,95.486 188.533,95.167 188.254 C 95.075 188.174,93.290 188.011,91.200 187.891 C 89.041 187.767,87.918 187.809,88.600 187.989 M307.400 187.989 C 308.592 188.303,314.286 188.533,313.967 188.254 C 313.875 188.174,312.090 188.011,310.000 187.891 C 307.841 187.767,306.718 187.809,307.400 187.989 M52.409 188.700 C 52.414 188.865,52.785 189.450,53.233 190.000 L 54.048 191.000 53.414 189.700 C 52.811 188.465,52.389 188.045,52.409 188.700 M97.200 188.800 C 97.750 188.976,98.650 189.120,99.200 189.120 L 100.200 189.120 99.200 188.800 C 98.650 188.624,97.750 188.480,97.200 188.480 L 96.200 188.480 97.200 188.800 M316.200 188.800 C 316.640 188.989,317.450 189.138,318.000 189.132 L 319.000 189.120 318.000 188.800 C 317.450 188.624,316.640 188.474,316.200 188.468 L 315.400 188.456 316.200 188.800 M101.200 189.582 C 101.530 189.805,102.145 189.991,102.567 189.994 C 103.590 190.002,103.271 189.773,101.800 189.444 C 100.924 189.248,100.762 189.285,101.200 189.582 M320.000 189.600 C 320.330 189.813,320.960 189.978,321.400 189.966 L 322.200 189.944 321.400 189.600 C 320.204 189.086,319.205 189.086,320.000 189.600 M103.774 190.357 C 103.924 190.601,104.325 190.800,104.665 190.800 C 108.642 190.800,119.931 199.104,124.504 205.394 C 126.799 208.551,127.714 209.597,126.609 207.800 C 123.992 203.546,118.792 198.183,114.377 195.184 C 110.777 192.740,103.080 189.236,103.774 190.357 M273.391 192.200 C 277.609 199.058,285.963 206.124,293.025 208.810 C 294.993 209.558,293.918 208.850,290.936 207.433 C 285.104 204.664,279.307 199.848,275.496 194.606 C 273.201 191.449,272.286 190.403,273.391 192.200 M55.827 194.200 C 57.200 196.000,57.468 196.003,56.304 194.205 C 55.807 193.438,55.256 192.808,55.080 192.805 C 54.903 192.802,55.240 193.430,55.827 194.200 M330.000 193.318 C 330.000 193.408,331.305 194.350,332.900 195.410 C 336.235 197.627,342.162 203.273,343.606 205.609 C 344.146 206.484,344.727 207.200,344.897 207.200 C 345.699 207.200,340.855 201.520,337.374 198.380 C 335.464 196.657,330.000 192.906,330.000 193.318 M58.804 197.851 C 59.742 198.869,61.250 200.347,62.155 201.137 C 63.060 201.926,62.450 201.116,60.800 199.337 C 59.150 197.557,57.642 196.079,57.449 196.051 C 57.256 196.023,57.866 196.833,58.804 197.851 M64.005 202.680 C 64.008 202.856,64.638 203.407,65.405 203.904 C 67.203 205.068,67.200 204.800,65.400 203.427 C 64.630 202.840,64.002 202.503,64.005 202.680 M67.200 204.948 C 67.200 205.187,71.412 207.700,72.500 208.111 C 73.774 208.591,73.227 208.095,71.500 207.203 C 70.565 206.720,69.215 205.967,68.500 205.530 C 67.785 205.092,67.200 204.831,67.200 204.948 M345.209 207.900 C 345.214 208.065,345.585 208.650,346.033 209.200 L 346.848 210.200 346.214 208.900 C 345.611 207.665,345.189 207.245,345.209 207.900 M127.200 209.336 C 127.200 209.638,129.586 213.777,129.593 213.487 C 129.603 213.047,127.629 209.200,127.393 209.200 C 127.287 209.200,127.200 209.261,127.200 209.336 M295.400 209.712 C 296.697 210.313,299.494 210.961,299.103 210.569 C 298.971 210.438,298.264 210.178,297.532 209.992 C 294.107 209.123,294.136 209.127,295.400 209.712 M78.400 210.400 C 79.768 210.838,80.819 210.838,79.800 210.400 C 79.360 210.211,78.640 210.062,78.200 210.068 C 77.557 210.077,77.596 210.143,78.400 210.400 M81.800 211.200 C 82.460 211.368,83.360 211.514,83.800 211.525 L 84.600 211.544 83.800 211.200 C 83.360 211.011,82.460 210.865,81.800 210.875 L 80.600 210.895 81.800 211.200 M300.800 211.200 C 301.350 211.376,302.160 211.526,302.600 211.532 L 303.400 211.544 302.600 211.200 C 302.160 211.011,301.350 210.862,300.800 210.868 L 299.800 210.880 300.800 211.200 M85.633 211.744 C 85.725 211.824,87.510 211.986,89.600 212.106 C 91.737 212.228,92.962 212.182,92.400 212.001 C 91.428 211.689,85.300 211.456,85.633 211.744 M304.433 211.744 C 304.525 211.824,306.310 211.986,308.400 212.106 C 310.537 212.228,311.762 212.182,311.200 212.001 C 310.228 211.689,304.100 211.456,304.433 211.744 M95.200 212.800 C 95.530 213.013,96.070 213.188,96.400 213.188 C 96.933 213.188,96.933 213.145,96.400 212.800 C 96.070 212.587,95.530 212.412,95.200 212.412 C 94.667 212.412,94.667 212.455,95.200 212.800 M97.233 213.349 C 97.645 213.717,100.000 214.800,100.000 214.621 C 100.000 214.390,97.782 213.200,97.353 213.200 C 97.196 213.200,97.142 213.267,97.233 213.349 M318.186 214.511 C 321.152 216.114,324.257 219.232,325.695 222.052 C 326.297 223.234,326.792 223.992,326.795 223.738 C 326.825 221.084,318.877 213.148,316.250 213.211 C 316.002 213.217,316.874 213.802,318.186 214.511 M101.400 215.807 C 103.335 217.425,104.351 217.797,102.600 216.247 C 101.720 215.467,100.820 214.824,100.600 214.817 C 100.380 214.810,100.740 215.256,101.400 215.807 M105.068 219.381 C 105.674 220.141,106.243 220.690,106.332 220.601 C 106.546 220.387,104.690 218.051,104.283 218.022 C 104.109 218.010,104.462 218.622,105.068 219.381 M350.034 218.400 C 350.046 218.730,350.211 219.360,350.400 219.800 L 350.744 220.600 350.766 219.800 C 350.778 219.360,350.613 218.730,350.400 218.400 C 350.055 217.867,350.015 217.867,350.034 218.400 M131.256 218.800 C 131.256 219.130,131.411 219.760,131.600 220.200 C 131.817 220.704,131.944 220.778,131.944 220.400 C 131.944 220.070,131.789 219.440,131.600 219.000 C 131.383 218.496,131.256 218.422,131.256 218.800 M350.875 221.400 C 350.886 221.840,351.032 222.740,351.200 223.400 L 351.505 224.600 351.525 223.400 C 351.535 222.740,351.389 221.840,351.200 221.400 L 350.856 220.600 350.875 221.400 M132.068 222.200 C 132.074 222.640,132.224 223.450,132.400 224.000 L 132.720 225.000 132.732 224.000 C 132.738 223.450,132.589 222.640,132.400 222.200 L 132.056 221.400 132.068 222.200 M327.480 227.277 C 327.899 229.446,328.013 232.827,327.922 240.385 C 327.855 245.987,327.914 250.037,328.053 249.385 C 328.911 245.358,328.239 225.847,327.201 224.677 C 327.044 224.500,327.169 225.670,327.480 227.277 M108.240 225.866 C 108.608 227.399,108.800 227.544,108.800 226.290 C 108.800 225.717,108.613 225.132,108.384 224.990 C 108.111 224.821,108.062 225.123,108.240 225.866 M351.800 238.600 C 351.800 246.080,351.915 251.120,352.057 249.800 C 352.198 248.480,352.313 243.440,352.313 238.600 C 352.313 233.760,352.198 228.720,352.057 227.400 C 351.915 226.080,351.800 231.120,351.800 238.600 M132.978 238.600 C 132.979 245.640,133.033 248.464,133.099 244.875 C 133.166 241.286,133.166 235.526,133.099 232.075 C 133.033 228.624,132.978 231.560,132.978 238.600 M109.000 238.600 C 109.000 244.515,109.114 248.825,109.253 248.177 C 109.392 247.530,109.505 243.220,109.505 238.600 C 109.505 233.980,109.392 229.670,109.253 229.023 C 109.114 228.375,109.000 232.685,109.000 238.600 M58.200 234.800 C 57.335 235.020,57.839 235.105,60.000 235.105 C 62.161 235.105,62.665 235.020,61.800 234.800 C 61.140 234.632,60.330 234.495,60.000 234.495 C 59.670 234.495,58.860 234.632,58.200 234.800 M277.000 234.800 C 276.135 235.020,276.639 235.105,278.800 235.105 C 280.961 235.105,281.465 235.020,280.600 234.800 C 279.940 234.632,279.130 234.495,278.800 234.495 C 278.470 234.495,277.660 234.632,277.000 234.800 M63.600 235.486 C 63.930 235.609,64.695 235.960,65.300 236.265 C 65.905 236.571,66.400 236.731,66.400 236.621 C 66.400 236.307,64.098 235.196,63.520 235.232 C 63.171 235.253,63.197 235.336,63.600 235.486 M273.500 235.829 C 272.895 236.157,272.400 236.514,272.400 236.623 C 272.400 236.732,272.895 236.571,273.500 236.265 C 274.105 235.960,274.870 235.609,275.200 235.486 C 275.733 235.288,275.733 235.261,275.200 235.248 C 274.870 235.239,274.105 235.501,273.500 235.829 M52.675 237.100 C 51.868 237.705,50.902 238.650,50.529 239.200 C 50.156 239.750,50.829 239.312,52.025 238.227 C 53.221 237.142,54.275 236.197,54.367 236.127 C 54.458 236.057,54.445 236.000,54.338 236.000 C 54.230 236.000,53.482 236.495,52.675 237.100 M68.400 238.647 C 69.390 239.744,70.266 240.597,70.347 240.541 C 70.586 240.376,68.682 238.194,67.600 237.393 C 67.050 236.985,67.410 237.550,68.400 238.647 M270.193 238.407 C 269.337 239.283,268.746 240.000,268.879 240.000 C 269.217 240.000,272.058 237.124,271.887 236.954 C 271.811 236.877,271.048 237.531,270.193 238.407 M286.800 237.735 C 286.800 237.877,287.153 238.400,287.584 238.897 C 288.015 239.394,288.658 240.160,289.012 240.600 C 289.486 241.188,289.464 241.049,288.928 240.073 C 288.217 238.777,286.800 237.220,286.800 237.735 M48.986 241.627 C 48.637 242.302,48.407 243.014,48.476 243.209 C 48.544 243.404,48.902 242.851,49.270 241.982 C 50.065 240.106,49.887 239.884,48.986 241.627 M71.012 242.834 C 71.335 243.751,71.629 245.243,71.664 246.150 C 71.726 247.738,71.734 247.748,71.895 246.425 C 72.069 244.991,71.334 241.730,70.757 241.374 C 70.574 241.260,70.689 241.918,71.012 242.834 M290.423 244.833 C 290.436 245.585,290.605 246.920,290.798 247.800 C 291.069 249.030,291.098 248.752,290.926 246.600 C 290.687 243.620,290.385 242.558,290.423 244.833 M48.146 247.800 C 48.147 250.000,48.214 250.849,48.295 249.687 C 48.376 248.524,48.376 246.724,48.293 245.687 C 48.211 244.649,48.145 245.600,48.146 247.800 M266.934 247.600 C 266.934 249.250,267.005 249.925,267.091 249.100 C 267.178 248.275,267.178 246.925,267.091 246.100 C 267.005 245.275,266.934 245.950,266.934 247.600 M72.040 249.033 C 72.062 249.675,72.233 250.650,72.420 251.200 C 72.649 251.874,72.684 251.549,72.528 250.200 C 72.269 247.950,71.979 247.259,72.040 249.033 M291.206 250.433 C 291.209 250.965,291.389 251.670,291.606 252.000 C 291.882 252.422,291.923 252.185,291.742 251.200 C 291.425 249.475,291.198 249.149,291.206 250.433 M108.454 250.667 C 108.425 251.144,108.296 251.864,108.170 252.267 C 107.952 252.961,107.964 252.962,108.396 252.288 C 108.647 251.897,108.775 251.177,108.681 250.688 C 108.509 249.801,108.509 249.801,108.454 250.667 M327.246 251.267 C 327.221 251.634,327.096 252.264,326.970 252.667 C 326.752 253.362,326.763 253.363,327.197 252.687 C 327.448 252.296,327.573 251.666,327.473 251.287 C 327.311 250.668,327.288 250.666,327.246 251.267 M217.400 252.400 C 217.250 252.873,217.217 253.350,217.327 253.460 C 217.437 253.570,217.650 253.273,217.800 252.800 C 217.950 252.327,217.983 251.850,217.873 251.740 C 217.763 251.630,217.550 251.927,217.400 252.400 M267.275 253.000 C 267.265 253.660,267.411 254.560,267.600 255.000 L 267.944 255.800 267.925 255.000 C 267.914 254.560,267.768 253.660,267.600 253.000 L 267.295 251.800 267.275 253.000 M48.406 253.633 C 48.409 254.385,48.592 255.270,48.812 255.600 C 49.091 256.019,49.133 255.658,48.950 254.400 C 48.625 252.159,48.398 251.840,48.406 253.633 M72.815 252.560 C 72.746 254.212,76.200 259.150,78.904 261.267 C 80.143 262.237,79.889 261.878,77.963 259.938 C 76.333 258.296,74.849 256.310,74.078 254.741 C 73.391 253.343,72.823 252.362,72.815 252.560 M132.200 254.000 C 132.046 254.910,132.011 255.744,132.121 255.854 C 132.231 255.964,132.446 255.310,132.600 254.400 C 132.754 253.490,132.789 252.656,132.679 252.546 C 132.569 252.436,132.354 253.090,132.200 254.000 M292.032 253.120 C 291.996 253.698,293.107 256.000,293.421 256.000 C 293.531 256.000,293.371 255.505,293.065 254.900 C 292.760 254.295,292.409 253.530,292.286 253.200 C 292.136 252.797,292.053 252.771,292.032 253.120 M106.810 255.179 C 105.081 258.871,101.421 261.973,96.000 264.342 C 95.039 264.762,95.047 264.769,96.200 264.539 C 100.314 263.717,108.674 255.822,107.897 253.492 C 107.829 253.288,107.340 254.047,106.810 255.179 M351.022 254.622 C 350.872 255.425,350.838 256.172,350.948 256.282 C 351.058 256.392,351.272 255.825,351.422 255.022 C 351.573 254.219,351.606 253.473,351.496 253.363 C 351.386 253.253,351.173 253.819,351.022 254.622 M158.087 254.200 C 158.091 254.640,158.232 255.540,158.400 256.200 C 158.674 257.278,158.706 257.298,158.713 256.400 C 158.717 255.850,158.576 254.950,158.400 254.400 C 158.149 253.616,158.081 253.573,158.087 254.200 M215.810 256.047 C 214.213 258.700,211.846 261.041,209.300 262.485 C 206.995 263.793,206.430 264.411,208.500 263.361 C 211.757 261.709,218.038 255.098,217.169 254.237 C 217.076 254.145,216.465 254.959,215.810 256.047 M241.235 256.100 C 240.416 259.748,240.358 260.278,240.946 258.780 C 241.546 257.250,242.186 254.000,241.888 254.000 C 241.788 254.000,241.494 254.945,241.235 256.100 M324.651 257.023 C 322.803 259.944,319.586 262.339,314.800 264.357 C 313.852 264.757,313.863 264.766,315.000 264.532 C 318.683 263.775,327.192 256.659,325.927 255.394 C 325.844 255.311,325.270 256.044,324.651 257.023 M184.334 256.764 C 186.068 259.767,191.939 264.400,194.010 264.400 C 194.283 264.400,193.251 263.771,191.714 263.003 C 189.108 261.699,186.302 259.210,184.270 256.400 C 183.721 255.641,183.737 255.729,184.334 256.764 M49.246 257.200 C 49.227 257.750,49.387 258.470,49.600 258.800 C 50.094 259.564,50.094 258.742,49.600 257.200 L 49.280 256.200 49.246 257.200 M268.056 256.800 C 268.056 257.130,268.211 257.760,268.400 258.200 C 268.617 258.704,268.744 258.778,268.744 258.400 C 268.744 258.070,268.589 257.440,268.400 257.000 C 268.183 256.496,268.056 256.422,268.056 256.800 M293.604 256.523 C 293.596 257.111,296.124 260.000,297.574 261.061 C 298.976 262.086,298.972 262.077,297.387 260.552 C 296.499 259.698,295.286 258.370,294.691 257.600 C 294.096 256.830,293.607 256.346,293.604 256.523 M131.400 257.600 C 131.250 258.073,131.217 258.550,131.327 258.660 C 131.437 258.770,131.650 258.473,131.800 258.000 C 131.950 257.527,131.983 257.050,131.873 256.940 C 131.763 256.830,131.550 257.127,131.400 257.600 M350.229 257.829 C 350.081 258.415,350.051 258.984,350.161 259.094 C 350.271 259.204,350.481 258.815,350.629 258.229 C 350.776 257.642,350.806 257.073,350.696 256.963 C 350.586 256.853,350.376 257.242,350.229 257.829 M159.044 258.600 C 159.373 260.071,159.602 260.390,159.594 259.367 C 159.591 258.945,159.405 258.330,159.182 258.000 C 158.885 257.562,158.848 257.724,159.044 258.600 M239.867 260.667 C 239.720 260.813,239.600 261.175,239.600 261.471 C 239.600 261.903,238.505 264.584,237.710 266.100 C 237.624 266.265,237.649 266.400,237.766 266.400 C 238.029 266.400,239.596 263.006,240.028 261.500 C 240.354 260.365,240.324 260.209,239.867 260.667 M129.467 263.267 C 129.105 264.188,128.874 265.007,128.954 265.088 C 129.034 265.168,129.400 264.483,129.767 263.567 C 130.133 262.650,130.364 261.831,130.279 261.746 C 130.194 261.661,129.829 262.345,129.467 263.267 M299.200 262.155 C 299.200 263.780,307.668 265.848,311.800 265.231 C 313.505 264.976,313.240 264.929,310.000 264.912 C 305.907 264.891,303.579 264.378,300.900 262.907 C 299.965 262.394,299.200 262.055,299.200 262.155 M81.800 263.205 C 83.023 264.020,85.623 264.910,85.918 264.615 C 86.007 264.526,85.382 264.264,84.528 264.034 C 83.674 263.805,82.621 263.348,82.188 263.021 C 81.754 262.693,81.220 262.421,81.000 262.415 C 80.780 262.410,81.140 262.765,81.800 263.205 M160.413 262.510 C 160.366 263.647,165.758 272.756,166.892 273.457 C 167.165 273.626,166.671 272.788,165.794 271.596 C 164.917 270.404,163.351 267.802,162.313 265.814 C 161.275 263.826,160.420 262.339,160.413 262.510 M205.000 264.400 C 204.496 264.617,204.422 264.744,204.800 264.744 C 205.130 264.744,205.760 264.589,206.200 264.400 C 206.704 264.183,206.778 264.056,206.400 264.056 C 206.070 264.056,205.440 264.211,205.000 264.400 M347.599 265.002 C 347.366 265.614,347.081 266.269,346.964 266.458 C 346.848 266.646,346.849 266.800,346.966 266.800 C 347.315 266.800,348.478 264.344,348.241 264.107 C 348.121 263.987,347.832 264.390,347.599 265.002 M88.400 265.236 C 89.610 265.404,91.590 265.405,92.800 265.237 C 94.637 264.984,94.274 264.933,90.600 264.932 C 86.925 264.931,86.563 264.981,88.400 265.236 M198.030 265.241 C 199.256 265.413,201.146 265.414,202.230 265.244 C 203.835 264.992,203.422 264.934,200.000 264.931 C 196.353 264.928,196.094 264.969,198.030 265.241 M271.786 266.700 C 272.135 267.415,272.506 268.000,272.610 268.000 C 273.008 268.000,272.752 267.363,271.967 266.400 L 271.152 265.400 271.786 266.700 M236.770 267.666 C 236.498 268.180,236.013 269.005,235.692 269.500 C 235.371 269.995,235.195 270.400,235.301 270.400 C 235.636 270.400,237.669 267.136,237.462 266.929 C 237.354 266.820,237.042 267.152,236.770 267.666 M53.786 268.300 C 54.135 269.015,54.506 269.600,54.610 269.600 C 55.008 269.600,54.752 268.963,53.967 268.000 L 53.152 267.000 53.786 268.300 M125.835 270.100 C 124.799 271.695,124.458 272.409,125.076 271.686 C 126.181 270.395,128.171 267.200,127.871 267.200 C 127.786 267.200,126.870 268.505,125.835 270.100 M273.043 268.800 C 274.403 271.710,283.647 281.686,284.341 280.992 C 284.480 280.854,284.235 280.542,283.797 280.301 C 283.359 280.060,281.768 278.678,280.261 277.231 C 277.866 274.930,276.399 273.189,273.481 269.186 C 273.086 268.644,272.889 268.470,273.043 268.800 M56.075 271.865 C 57.538 273.923,64.021 280.512,64.305 280.228 C 64.403 280.130,63.796 279.453,62.955 278.725 C 60.855 276.907,57.866 273.688,56.408 271.675 C 55.741 270.754,55.095 270.000,54.973 270.000 C 54.850 270.000,55.346 270.839,56.075 271.865 M343.244 272.141 C 342.374 273.319,340.253 275.697,338.531 277.426 C 336.809 279.155,335.850 280.224,336.400 279.803 C 338.090 278.507,342.833 273.496,344.068 271.700 C 345.744 269.266,345.122 269.598,343.244 272.141 M234.344 271.500 C 233.075 273.032,232.619 273.742,233.081 273.465 C 233.593 273.158,235.369 270.800,235.089 270.800 C 234.998 270.800,234.663 271.115,234.344 271.500 M123.200 273.520 C 123.200 273.822,119.254 277.826,116.600 280.218 C 115.940 280.813,115.760 281.057,116.200 280.761 C 118.619 279.133,124.454 273.200,123.637 273.200 C 123.397 273.200,123.200 273.344,123.200 273.520 M169.600 276.600 C 171.017 278.030,172.300 279.200,172.451 279.200 C 172.602 279.200,171.556 278.030,170.126 276.600 C 168.696 275.170,167.413 274.000,167.275 274.000 C 167.136 274.000,168.183 275.170,169.600 276.600 M229.705 276.715 C 226.359 280.237,226.735 280.292,230.211 276.789 C 231.733 275.255,232.803 274.020,232.589 274.044 C 232.375 274.068,231.077 275.270,229.705 276.715 M173.200 279.749 C 173.200 279.835,173.830 280.386,174.600 280.973 C 175.370 281.560,175.998 281.897,175.995 281.720 C 175.992 281.544,175.362 280.993,174.595 280.496 C 173.828 279.999,173.200 279.663,173.200 279.749 M225.305 280.525 C 224.593 281.006,224.008 281.547,224.005 281.727 C 223.999 282.088,226.235 280.590,226.612 279.981 C 226.934 279.460,226.796 279.517,225.305 280.525 M334.580 280.779 C 334.371 280.987,332.686 282.067,330.836 283.179 C 327.016 285.474,326.806 285.913,330.535 283.810 C 332.853 282.502,335.666 280.446,335.180 280.414 C 335.059 280.406,334.789 280.571,334.580 280.779 M176.400 282.190 C 176.400 282.294,176.985 282.665,177.700 283.014 L 179.000 283.648 178.000 282.833 C 177.037 282.048,176.400 281.792,176.400 282.190 M219.800 284.019 C 215.683 286.272,215.492 286.675,219.510 284.633 C 221.919 283.408,224.130 282.005,223.600 282.038 C 223.490 282.044,221.780 282.936,219.800 284.019 M69.200 283.567 C 70.163 284.352,70.800 284.608,70.800 284.210 C 70.800 284.106,70.215 283.735,69.500 283.386 L 68.200 282.752 69.200 283.567 M111.500 283.429 C 110.895 283.757,110.400 284.110,110.400 284.213 C 110.400 284.599,111.032 284.357,112.000 283.600 C 113.189 282.670,113.011 282.609,111.500 283.429 M288.000 283.567 C 288.963 284.352,289.600 284.608,289.600 284.210 C 289.600 284.106,289.015 283.735,288.300 283.386 L 287.000 282.752 288.000 283.567 M179.200 283.798 C 179.200 284.067,183.249 286.084,183.429 285.905 C 183.511 285.823,182.593 285.273,181.389 284.682 C 180.185 284.092,179.200 283.694,179.200 283.798 M72.800 285.414 C 72.800 285.693,75.706 286.831,76.091 286.703 C 76.282 286.639,75.620 286.284,74.619 285.913 C 73.619 285.542,72.800 285.317,72.800 285.414 M106.200 286.022 C 105.320 286.438,104.803 286.784,105.051 286.790 C 105.632 286.803,108.400 285.650,108.400 285.395 C 108.400 285.077,107.891 285.222,106.200 286.022 M324.632 286.217 C 323.330 286.758,321.980 287.214,321.632 287.232 C 321.193 287.254,321.158 287.327,321.518 287.471 C 322.032 287.677,326.253 286.183,326.980 285.538 C 327.532 285.047,327.261 285.126,324.632 286.217 M185.400 286.800 C 186.280 287.207,187.360 287.548,187.800 287.556 C 188.240 287.564,187.617 287.218,186.415 286.786 C 183.714 285.814,183.284 285.820,185.400 286.800 M213.600 286.800 C 212.610 287.215,212.070 287.552,212.400 287.548 C 213.072 287.540,216.428 286.063,215.800 286.052 C 215.580 286.048,214.590 286.385,213.600 286.800 M77.000 287.200 C 77.136 287.420,77.642 287.587,78.124 287.572 C 78.969 287.545,78.971 287.531,78.200 287.200 C 77.099 286.727,76.708 286.727,77.000 287.200 M103.000 287.200 C 102.229 287.531,102.231 287.545,103.076 287.572 C 103.558 287.587,104.064 287.420,104.200 287.200 C 104.492 286.727,104.101 286.727,103.000 287.200 M79.223 287.733 C 80.241 288.857,94.434 289.730,97.527 288.859 C 98.037 288.716,95.632 288.664,92.184 288.743 C 86.539 288.873,84.237 288.679,80.000 287.715 C 79.450 287.590,79.100 287.598,79.223 287.733 M99.800 288.000 C 98.711 288.277,98.693 288.307,99.600 288.325 C 100.150 288.335,100.960 288.189,101.400 288.000 C 102.386 287.576,101.466 287.576,99.800 288.000 M188.860 287.777 C 189.913 288.896,204.030 289.730,207.139 288.856 C 207.656 288.711,205.316 288.660,201.939 288.742 C 196.505 288.875,192.387 288.539,189.400 287.720 C 188.960 287.599,188.717 287.625,188.860 287.777 M209.400 288.000 C 208.293 288.282,208.277 288.309,209.200 288.347 C 209.750 288.369,210.470 288.213,210.800 288.000 C 211.481 287.560,211.129 287.560,209.400 288.000 M298.600 287.981 C 299.368 288.329,301.510 288.556,301.167 288.253 C 301.075 288.172,300.280 287.996,299.400 287.862 C 298.285 287.693,298.042 287.729,298.600 287.981 M317.200 288.264 C 315.342 288.681,312.738 288.812,308.075 288.724 C 304.486 288.656,301.966 288.717,302.475 288.860 C 305.468 289.702,319.664 288.870,320.744 287.789 C 321.039 287.494,320.023 287.630,317.200 288.264 " stroke="none" fill="#fcaca4" fill-rule="evenodd"></path></g></svg>